<svg id="Capa_1" data-name="Capa 1" xmlns="http://www.w3.org/2000/svg" viewBox="0 0 696.89 467.96"><defs><style>.cls-1{fill:none;}.cls-1,.cls-2,.cls-3{stroke:#35398e;stroke-miterlimit:10;stroke-width:2px;}.cls-2,.cls-4{fill:#35398e;}.cls-3{fill:#fdcc68;}.cls-5{fill:#fff;}</style></defs><rect class="cls-1" x="1" y="1" width="156.84" height="67.05" rx="33.53"/><path class="cls-1" d="M420.94,170.51H185.72A33.53,33.53,0,0,1,152.19,137h0" transform="translate(-72.5 -68.93)"/><path class="cls-1" d="M420.94,170.51H656.45A33.53,33.53,0,0,0,690,137h0" transform="translate(-72.5 -68.93)"/><rect class="cls-1" x="539.06" y="1" width="156.84" height="67.05" rx="33.53"/><rect class="cls-1" x="231.6" y="1" width="233.7" height="67.05" rx="33.53"/><rect class="cls-1" x="1" y="266.94" width="156.84" height="67.05" rx="33.53"/><rect class="cls-1" x="539.06" y="266.94" width="156.84" height="67.05" rx="33.53"/><rect class="cls-1" x="231.6" y="266.94" width="233.7" height="67.05" rx="33.53"/><rect class="cls-2" x="231.6" y="399.91" width="233.7" height="67.05" rx="33.53"/><rect class="cls-3" x="231.6" y="133.97" width="233.7" height="67.05" rx="33.53"/><line class="cls-1" x1="157.84" y1="34.53" x2="231.6" y2="34.53"/><line class="cls-1" x1="465.29" y1="34.53" x2="539.06" y2="34.53"/><line class="cls-1" x1="157.84" y1="300.46" x2="231.6" y2="300.46"/><line class="cls-1" x1="465.29" y1="300.46" x2="539.06" y2="300.46"/><path class="cls-4" d="M123.23,103.9a3,3,0,0,1-1,2.17,3.61,3.61,0,0,1-2.42.79,3.21,3.21,0,0,1-2.58-1.11,4.5,4.5,0,0,1-.94-3v-.52a5.25,5.25,0,0,1,.43-2.17,3.31,3.31,0,0,1,1.24-1.44,3.52,3.52,0,0,1,1.88-.5,3.45,3.45,0,0,1,2.37.79,3.25,3.25,0,0,1,1,2.22h-1.76a1.8,1.8,0,0,0-.46-1.2,1.74,1.74,0,0,0-1.2-.37,1.5,1.5,0,0,0-1.32.63,3.56,3.56,0,0,0-.45,2v.64a3.76,3.76,0,0,0,.42,2,1.46,1.46,0,0,0,1.32.64,1.73,1.73,0,0,0,1.22-.37,1.67,1.67,0,0,0,.46-1.15Z" transform="translate(-72.5 -68.93)"/><path class="cls-4" d="M124,103.51a3.77,3.77,0,0,1,.36-1.68,2.67,2.67,0,0,1,1-1.14,3.08,3.08,0,0,1,1.59-.41,2.86,2.86,0,0,1,2.09.79,3.09,3.09,0,0,1,.91,2.13v.43a3.3,3.3,0,0,1-.81,2.34,2.84,2.84,0,0,1-2.19.89,2.88,2.88,0,0,1-2.19-.88,3.41,3.41,0,0,1-.81-2.39Zm1.69.12A2.34,2.34,0,0,0,126,105a1.22,1.22,0,0,0,1.93,0,2.61,2.61,0,0,0,.35-1.51,2.39,2.39,0,0,0-.35-1.38,1.21,1.21,0,0,0-1.93,0A2.6,2.6,0,0,0,125.7,103.63Z" transform="translate(-72.5 -68.93)"/><path class="cls-4" d="M134.62,102a5,5,0,0,0-.61,0,1.25,1.25,0,0,0-1.26.65v4.15h-1.7V100.4h1.6l0,.75a1.57,1.57,0,0,1,1.41-.87,1.78,1.78,0,0,1,.53.08Z" transform="translate(-72.5 -68.93)"/><path class="cls-4" d="M141.14,103.63a3.74,3.74,0,0,1-.67,2.34,2.12,2.12,0,0,1-1.79.89,2,2,0,0,1-1.56-.67v3h-1.69V100.4H137l.06.62a2,2,0,0,1,1.61-.74,2.15,2.15,0,0,1,1.82.87,3.92,3.92,0,0,1,.65,2.39Zm-1.7-.13a2.47,2.47,0,0,0-.31-1.36,1,1,0,0,0-.91-.48,1.11,1.11,0,0,0-1.1.61v2.59a1.13,1.13,0,0,0,1.11.63C139,105.49,139.44,104.83,139.44,103.5Z" transform="translate(-72.5 -68.93)"/><path class="cls-4" d="M145.1,106.86a3.14,3.14,0,0,1-2.27-.86,3.05,3.05,0,0,1-.87-2.28v-.16a3.77,3.77,0,0,1,.37-1.71,2.67,2.67,0,0,1,1-1.16,3,3,0,0,1,1.55-.41,2.67,2.67,0,0,1,2.05.82,3.38,3.38,0,0,1,.74,2.33v.69h-4a1.59,1.59,0,0,0,.49,1,1.5,1.5,0,0,0,1.05.37,1.84,1.84,0,0,0,1.53-.71l.83.93a2.59,2.59,0,0,1-1,.84A3.31,3.31,0,0,1,145.1,106.86Zm-.19-5.21a1.06,1.06,0,0,0-.82.34,1.84,1.84,0,0,0-.4,1h2.36v-.14a1.22,1.22,0,0,0-.31-.87A1.06,1.06,0,0,0,144.91,101.65Z" transform="translate(-72.5 -68.93)"/><path class="cls-4" d="M152.11,105a.56.56,0,0,0-.31-.49,3.35,3.35,0,0,0-1-.32c-1.51-.32-2.26-1-2.26-1.92a1.72,1.72,0,0,1,.7-1.41,2.82,2.82,0,0,1,1.83-.57,3,3,0,0,1,1.93.57,1.81,1.81,0,0,1,.73,1.48H152a.81.81,0,0,0-.23-.6,1,1,0,0,0-.73-.24,1,1,0,0,0-.67.19.64.64,0,0,0-.23.49.53.53,0,0,0,.27.46,2.88,2.88,0,0,0,.9.3,7.58,7.58,0,0,1,1.06.28,1.75,1.75,0,0,1,1.34,1.71,1.65,1.65,0,0,1-.74,1.4,3.21,3.21,0,0,1-1.92.54,3.37,3.37,0,0,1-1.42-.29,2.43,2.43,0,0,1-1-.78,1.82,1.82,0,0,1-.35-1.07H150a.85.85,0,0,0,.33.69,1.32,1.32,0,0,0,.83.24,1.26,1.26,0,0,0,.74-.18A.58.58,0,0,0,152.11,105Z" transform="translate(-72.5 -68.93)"/><path class="cls-4" d="M157.48,105.49a1.11,1.11,0,0,0,.76-.26.89.89,0,0,0,.31-.68h1.58a2.15,2.15,0,0,1-.35,1.18,2.3,2.3,0,0,1-.94.83,3,3,0,0,1-1.33.3,2.76,2.76,0,0,1-2.15-.87,3.42,3.42,0,0,1-.78-2.39v-.11a3.41,3.41,0,0,1,.78-2.34,2.72,2.72,0,0,1,2.14-.87,2.65,2.65,0,0,1,1.9.68,2.36,2.36,0,0,1,.73,1.8h-1.58a1.13,1.13,0,0,0-.31-.8,1,1,0,0,0-.77-.31,1,1,0,0,0-.9.43,2.51,2.51,0,0,0-.3,1.4v.17a2.5,2.5,0,0,0,.3,1.41A1,1,0,0,0,157.48,105.49Z" transform="translate(-72.5 -68.93)"/><path class="cls-4" d="M164.77,106.74a2.28,2.28,0,0,1-.17-.57,2,2,0,0,1-1.59.69,2.25,2.25,0,0,1-1.55-.54,1.74,1.74,0,0,1-.61-1.36,1.8,1.8,0,0,1,.75-1.55,3.62,3.62,0,0,1,2.16-.54h.77v-.37a1,1,0,0,0-.22-.7.87.87,0,0,0-.71-.26,1,1,0,0,0-.67.2.69.69,0,0,0-.25.56H161a1.71,1.71,0,0,1,.34-1,2.32,2.32,0,0,1,1-.73,3.46,3.46,0,0,1,1.4-.27,2.78,2.78,0,0,1,1.86.59,2.09,2.09,0,0,1,.68,1.66v2.74a3,3,0,0,0,.26,1.37v.1Zm-1.4-1.18a1.42,1.42,0,0,0,.7-.17,1.09,1.09,0,0,0,.46-.44v-1.09h-.63q-1.28,0-1.35.87v.1a.69.69,0,0,0,.23.53A.87.87,0,0,0,163.37,105.56Z" transform="translate(-72.5 -68.93)"/><path class="cls-4" d="M175.06,104.5a.9.9,0,0,0-.35-.76,4.71,4.71,0,0,0-1.27-.57,8.66,8.66,0,0,1-1.45-.58,2.36,2.36,0,0,1-1.45-2.11,2.06,2.06,0,0,1,.39-1.24,2.5,2.5,0,0,1,1.12-.84,4.1,4.1,0,0,1,1.64-.31,3.86,3.86,0,0,1,1.63.33,2.62,2.62,0,0,1,1.11.94,2.47,2.47,0,0,1,.39,1.37h-1.76a1.13,1.13,0,0,0-.37-.91,1.48,1.48,0,0,0-1-.33,1.61,1.61,0,0,0-1,.27.86.86,0,0,0-.36.72.83.83,0,0,0,.42.7,4.87,4.87,0,0,0,1.23.53,5.43,5.43,0,0,1,2.19,1.11,2.26,2.26,0,0,1,.68,1.67,2.05,2.05,0,0,1-.84,1.74,3.64,3.64,0,0,1-2.25.63,4.3,4.3,0,0,1-1.79-.36,2.82,2.82,0,0,1-1.24-1,2.55,2.55,0,0,1-.42-1.45H172c0,.94.56,1.41,1.69,1.41a1.65,1.65,0,0,0,1-.26A.83.83,0,0,0,175.06,104.5Z" transform="translate(-72.5 -68.93)"/><path class="cls-4" d="M178,105.91a.87.87,0,0,1,.27-.66,1.06,1.06,0,0,1,1.37,0,.87.87,0,0,1,.27.66.82.82,0,0,1-.27.64,1.06,1.06,0,0,1-1.37,0A.82.82,0,0,1,178,105.91Z" transform="translate(-72.5 -68.93)"/><path class="cls-4" d="M186.31,105h-3.08l-.58,1.76h-1.87L184,98.21h1.63l3.19,8.53h-1.86Zm-2.6-1.42h2.13l-1.07-3.2Z" transform="translate(-72.5 -68.93)"/><path class="cls-4" d="M189.55,105.91a.87.87,0,0,1,.27-.66,1.06,1.06,0,0,1,1.37,0,.87.87,0,0,1,.27.66.82.82,0,0,1-.27.64,1.06,1.06,0,0,1-1.37,0A.82.82,0,0,1,189.55,105.91Z" transform="translate(-72.5 -68.93)"/><path class="cls-4" d="M644.28,105H641.2l-.58,1.76h-1.87l3.17-8.53h1.63l3.19,8.53h-1.86Zm-2.6-1.42h2.13l-1.07-3.2Z" transform="translate(-72.5 -68.93)"/><path class="cls-4" d="M650.86,105a.55.55,0,0,0-.3-.49,3.46,3.46,0,0,0-1-.32c-1.51-.32-2.26-1-2.26-1.92a1.72,1.72,0,0,1,.7-1.41,2.78,2.78,0,0,1,1.83-.57,3,3,0,0,1,1.93.57,1.8,1.8,0,0,1,.72,1.48H650.8a.78.78,0,0,0-.24-.6,1,1,0,0,0-.73-.24,1,1,0,0,0-.66.19.61.61,0,0,0-.23.49.52.52,0,0,0,.26.46,3.08,3.08,0,0,0,.9.3,7.76,7.76,0,0,1,1.07.28,1.76,1.76,0,0,1,1.34,1.71,1.67,1.67,0,0,1-.74,1.4,3.22,3.22,0,0,1-1.93.54,3.32,3.32,0,0,1-1.41-.29,2.37,2.37,0,0,1-1-.78,1.76,1.76,0,0,1-.35-1.07h1.6a.89.89,0,0,0,.34.69,1.3,1.3,0,0,0,.83.24,1.23,1.23,0,0,0,.73-.18A.56.56,0,0,0,650.86,105Z" transform="translate(-72.5 -68.93)"/><path class="cls-4" d="M655.63,98.84v1.56h1.08v1.24h-1.08v3.17a.75.75,0,0,0,.13.5.69.69,0,0,0,.52.15,2.6,2.6,0,0,0,.5,0v1.28a3.31,3.31,0,0,1-1,.16,1.62,1.62,0,0,1-1.82-1.8v-3.42H653V100.4h.92V98.84Z" transform="translate(-72.5 -68.93)"/><path class="cls-4" d="M657.64,98.76a.84.84,0,0,1,.26-.63,1.11,1.11,0,0,1,1.38,0,.81.81,0,0,1,.26.63.83.83,0,0,1-.26.63.93.93,0,0,1-.69.25,1,1,0,0,1-.69-.25A.83.83,0,0,1,657.64,98.76Zm1.8,8h-1.7V100.4h1.7Z" transform="translate(-72.5 -68.93)"/><path class="cls-4" d="M662.62,106.74h-1.7v-9h1.7Z" transform="translate(-72.5 -68.93)"/><path class="cls-4" d="M665.8,106.74h-1.69v-9h1.69Z" transform="translate(-72.5 -68.93)"/><path class="cls-4" d="M670.12,106.86a3.11,3.11,0,0,1-2.27-.86,3,3,0,0,1-.88-2.28v-.16a3.77,3.77,0,0,1,.37-1.71,2.69,2.69,0,0,1,1-1.16,2.93,2.93,0,0,1,1.54-.41,2.66,2.66,0,0,1,2.05.82,3.33,3.33,0,0,1,.74,2.33v.69h-4a1.59,1.59,0,0,0,.49,1,1.51,1.51,0,0,0,1.05.37,1.84,1.84,0,0,0,1.53-.71l.83.93a2.52,2.52,0,0,1-1,.84A3.3,3.3,0,0,1,670.12,106.86Zm-.2-5.21a1,1,0,0,0-.81.34,1.7,1.7,0,0,0-.4,1h2.35v-.14a1.27,1.27,0,0,0-.3-.87A1.1,1.1,0,0,0,669.92,101.65Z" transform="translate(-72.5 -68.93)"/><path class="cls-4" d="M677.25,102a5,5,0,0,0-.61,0,1.25,1.25,0,0,0-1.26.65v4.15h-1.69V100.4h1.6l0,.75a1.57,1.57,0,0,1,1.41-.87,1.78,1.78,0,0,1,.53.08Z" transform="translate(-72.5 -68.93)"/><path class="cls-4" d="M677.59,103.51a3.77,3.77,0,0,1,.36-1.68,2.63,2.63,0,0,1,1-1.14,3,3,0,0,1,1.58-.41,2.87,2.87,0,0,1,2.1.79,3.12,3.12,0,0,1,.9,2.13v.43a3.3,3.3,0,0,1-.81,2.34,3.14,3.14,0,0,1-4.37,0,3.37,3.37,0,0,1-.82-2.39Zm1.69.12a2.34,2.34,0,0,0,.34,1.38,1.22,1.22,0,0,0,1.93,0,2.53,2.53,0,0,0,.35-1.51,2.31,2.31,0,0,0-.35-1.38,1.21,1.21,0,0,0-1.93,0A2.6,2.6,0,0,0,679.28,103.63Z" transform="translate(-72.5 -68.93)"/><path class="cls-4" d="M688.07,105a.54.54,0,0,0-.31-.49,3.27,3.27,0,0,0-1-.32c-1.51-.32-2.27-1-2.27-1.92a1.74,1.74,0,0,1,.7-1.41,2.82,2.82,0,0,1,1.83-.57,3.07,3.07,0,0,1,1.94.57,1.8,1.8,0,0,1,.72,1.48H688a.78.78,0,0,0-.24-.6,1.24,1.24,0,0,0-1.39,0,.62.62,0,0,0-.24.49.53.53,0,0,0,.27.46,3.08,3.08,0,0,0,.9.3,7.76,7.76,0,0,1,1.07.28,1.76,1.76,0,0,1,1.34,1.71,1.66,1.66,0,0,1-.75,1.4,3.16,3.16,0,0,1-1.92.54,3.32,3.32,0,0,1-1.41-.29,2.3,2.3,0,0,1-1-.78,1.77,1.77,0,0,1-.36-1.07h1.61a.92.92,0,0,0,.33.69,1.35,1.35,0,0,0,.84.24,1.23,1.23,0,0,0,.73-.18A.56.56,0,0,0,688.07,105Z" transform="translate(-72.5 -68.93)"/><path class="cls-4" d="M698.72,105h-3.08l-.59,1.76h-1.86l3.17-8.53H698l3.19,8.53h-1.87Zm-2.6-1.42h2.13l-1.07-3.2Z" transform="translate(-72.5 -68.93)"/><path class="cls-4" d="M705.43,102a4.82,4.82,0,0,0-.61,0,1.25,1.25,0,0,0-1.26.65v4.15h-1.69V100.4h1.6l0,.75a1.57,1.57,0,0,1,1.41-.87,1.84,1.84,0,0,1,.53.08Z" transform="translate(-72.5 -68.93)"/><path class="cls-4" d="M706.23,98.76a.84.84,0,0,1,.26-.63,1,1,0,0,1,.69-.24,1,1,0,0,1,.7.24.84.84,0,0,1,.25.63.79.79,0,0,1-.26.63,1.06,1.06,0,0,1-1.37,0A.8.8,0,0,1,706.23,98.76Zm1.8,8h-1.7V100.4H708Z" transform="translate(-72.5 -68.93)"/><path class="cls-4" d="M712.06,105.49a1.14,1.14,0,0,0,.77-.26.92.92,0,0,0,.3-.68h1.59a2.23,2.23,0,0,1-.35,1.18,2.33,2.33,0,0,1-1,.83,2.92,2.92,0,0,1-1.33.3A2.74,2.74,0,0,1,710,106a3.43,3.43,0,0,1-.79-2.39v-.11a3.41,3.41,0,0,1,.78-2.34,2.74,2.74,0,0,1,2.14-.87A2.67,2.67,0,0,1,714,101a2.39,2.39,0,0,1,.73,1.8h-1.59a1.17,1.17,0,0,0-.3-.8,1,1,0,0,0-.78-.31,1,1,0,0,0-.89.43,2.51,2.51,0,0,0-.3,1.4v.17a2.5,2.5,0,0,0,.3,1.41A1,1,0,0,0,712.06,105.49Z" transform="translate(-72.5 -68.93)"/><path class="cls-4" d="M719.36,106.74a1.67,1.67,0,0,1-.17-.57,2,2,0,0,1-1.6.69,2.23,2.23,0,0,1-1.54-.54,1.75,1.75,0,0,1-.62-1.36,1.8,1.8,0,0,1,.75-1.55,3.66,3.66,0,0,1,2.16-.54h.78v-.37a1.05,1.05,0,0,0-.23-.7.86.86,0,0,0-.71-.26,1,1,0,0,0-.67.2.71.71,0,0,0-.24.56h-1.7a1.78,1.78,0,0,1,.34-1,2.29,2.29,0,0,1,1-.73,3.41,3.41,0,0,1,1.39-.27,2.78,2.78,0,0,1,1.86.59,2.07,2.07,0,0,1,.69,1.66v2.74a3,3,0,0,0,.25,1.37v.1Zm-1.4-1.18a1.36,1.36,0,0,0,.69-.17,1.12,1.12,0,0,0,.47-.44v-1.09h-.63c-.85,0-1.3.29-1.36.87v.1a.68.68,0,0,0,.22.53A.9.9,0,0,0,718,105.56Z" transform="translate(-72.5 -68.93)"/><path class="cls-4" d="M729.64,104.5a.87.87,0,0,0-.35-.76,4.61,4.61,0,0,0-1.26-.57,8.32,8.32,0,0,1-1.45-.58,2.37,2.37,0,0,1-1.46-2.11,2.06,2.06,0,0,1,.39-1.24,2.56,2.56,0,0,1,1.12-.84,4.13,4.13,0,0,1,1.64-.31,3.86,3.86,0,0,1,1.63.33,2.51,2.51,0,0,1,1.11.94,2.47,2.47,0,0,1,.4,1.37h-1.76a1.13,1.13,0,0,0-.37-.91,1.51,1.51,0,0,0-1-.33,1.63,1.63,0,0,0-1,.27.86.86,0,0,0-.36.72.83.83,0,0,0,.42.7,4.81,4.81,0,0,0,1.24.53,5.38,5.38,0,0,1,2.18,1.11,2.23,2.23,0,0,1,.69,1.67,2.05,2.05,0,0,1-.84,1.74,3.67,3.67,0,0,1-2.26.63,4.37,4.37,0,0,1-1.79-.36,2.79,2.79,0,0,1-1.23-1,2.48,2.48,0,0,1-.43-1.45h1.76c0,.94.57,1.41,1.69,1.41a1.63,1.63,0,0,0,1-.26A.81.81,0,0,0,729.64,104.5Z" transform="translate(-72.5 -68.93)"/><path class="cls-4" d="M732.57,105.91a.87.87,0,0,1,.27-.66,1,1,0,0,1,.69-.25,1,1,0,0,1,.69.25.87.87,0,0,1,.27.66.82.82,0,0,1-.27.64,1.08,1.08,0,0,1-1.38,0A.82.82,0,0,1,732.57,105.91Z" transform="translate(-72.5 -68.93)"/><path class="cls-4" d="M740.9,105h-3.08l-.59,1.76h-1.87l3.18-8.53h1.63l3.19,8.53h-1.87Zm-2.61-1.42h2.13l-1.07-3.2Z" transform="translate(-72.5 -68.93)"/><path class="cls-4" d="M744.13,105.91a.84.84,0,0,1,.28-.66.94.94,0,0,1,.68-.25,1,1,0,0,1,.69.25.87.87,0,0,1,.27.66.82.82,0,0,1-.27.64,1.08,1.08,0,0,1-1.38,0A.82.82,0,0,1,744.13,105.91Z" transform="translate(-72.5 -68.93)"/><path class="cls-4" d="M353,101.25h-1.76V92.71H353Z" transform="translate(-72.5 -68.93)"/><path class="cls-4" d="M356.08,94.91l.05.73a2.2,2.2,0,0,1,1.82-.85,1.83,1.83,0,0,1,1.5.59,2.75,2.75,0,0,1,.51,1.77v4.1h-1.7V97.19a.86.86,0,0,0-1-1,1.16,1.16,0,0,0-1.07.6v4.48h-1.7V94.91Z" transform="translate(-72.5 -68.93)"/><path class="cls-4" d="M362.83,94.91l.05.7a2.23,2.23,0,0,1,1.82-.82,1.7,1.7,0,0,1,1.69,1,2.16,2.16,0,0,1,1.9-1,1.87,1.87,0,0,1,1.53.6,2.73,2.73,0,0,1,.51,1.81v4h-1.7v-4a1.22,1.22,0,0,0-.21-.79,1,1,0,0,0-.75-.24,1.05,1.05,0,0,0-1.05.72v4.36h-1.7v-4a1.24,1.24,0,0,0-.21-.8,1,1,0,0,0-.74-.24,1.1,1.1,0,0,0-1.05.59v4.49h-1.69V94.91Z" transform="translate(-72.5 -68.93)"/><path class="cls-4" d="M371.37,98a3.77,3.77,0,0,1,.36-1.68,2.64,2.64,0,0,1,1-1.15,3.08,3.08,0,0,1,1.59-.4,2.88,2.88,0,0,1,2.09.78,3.13,3.13,0,0,1,.91,2.14v.43a3.33,3.33,0,0,1-.81,2.34,3.17,3.17,0,0,1-4.38,0,3.38,3.38,0,0,1-.81-2.39Zm1.69.12a2.34,2.34,0,0,0,.34,1.38,1.21,1.21,0,0,0,1.93,0,2.56,2.56,0,0,0,.35-1.51,2.35,2.35,0,0,0-.35-1.37,1.2,1.2,0,0,0-1.93,0A2.6,2.6,0,0,0,373.06,98.14Z" transform="translate(-72.5 -68.93)"/><path class="cls-4" d="M384.13,98.13a3.87,3.87,0,0,1-.65,2.38,2.16,2.16,0,0,1-1.82.85,2,2,0,0,1-1.65-.79l-.07.68h-1.53v-9h1.7v3.22a1.94,1.94,0,0,1,1.54-.68,2.17,2.17,0,0,1,1.82.85,3.85,3.85,0,0,1,.66,2.4Zm-1.7-.12a2.53,2.53,0,0,0-.3-1.4,1,1,0,0,0-.91-.44,1.11,1.11,0,0,0-1.11.66v2.5a1.13,1.13,0,0,0,1.12.67,1,1,0,0,0,1.08-.81A4.29,4.29,0,0,0,382.43,98Z" transform="translate(-72.5 -68.93)"/><path class="cls-4" d="M385.16,93.27a.82.82,0,0,1,.25-.63,1.09,1.09,0,0,1,1.39,0,.83.83,0,0,1,.26.63.86.86,0,0,1-.26.63,1,1,0,0,1-.69.24,1,1,0,0,1-.69-.24A.86.86,0,0,1,385.16,93.27Zm1.8,8h-1.7V94.91H387Z" transform="translate(-72.5 -68.93)"/><path class="cls-4" d="M390.14,101.25h-1.7v-9h1.7Z" transform="translate(-72.5 -68.93)"/><path class="cls-4" d="M391.52,93.27a.83.83,0,0,1,.26-.63,1.08,1.08,0,0,1,1.38,0,.83.83,0,0,1,.26.63.86.86,0,0,1-.26.63,1,1,0,0,1-.69.24,1,1,0,0,1-.69-.24A.86.86,0,0,1,391.52,93.27Zm1.8,8h-1.7V94.91h1.7Z" transform="translate(-72.5 -68.93)"/><path class="cls-4" d="M398.39,101.25a1.82,1.82,0,0,1-.17-.57,2.06,2.06,0,0,1-1.6.68,2.23,2.23,0,0,1-1.54-.54,1.73,1.73,0,0,1-.62-1.36,1.78,1.78,0,0,1,.75-1.54,3.74,3.74,0,0,1,2.16-.55h.78V97a1,1,0,0,0-.23-.7.86.86,0,0,0-.71-.27,1,1,0,0,0-.67.21.68.68,0,0,0-.24.56h-1.7a1.73,1.73,0,0,1,.34-1,2.24,2.24,0,0,1,1-.73,3.5,3.5,0,0,1,1.4-.27,2.73,2.73,0,0,1,1.86.59,2,2,0,0,1,.69,1.65v2.75a3.07,3.07,0,0,0,.25,1.37v.1Zm-1.4-1.18a1.47,1.47,0,0,0,.69-.17,1.08,1.08,0,0,0,.47-.45V98.36h-.63c-.85,0-1.3.3-1.36.88v.1a.66.66,0,0,0,.22.52A.85.85,0,0,0,397,100.07Z" transform="translate(-72.5 -68.93)"/><path class="cls-4" d="M404.71,96.49a4.66,4.66,0,0,0-.61,0,1.23,1.23,0,0,0-1.26.65v4.15h-1.69V94.91h1.6l.05.75a1.57,1.57,0,0,1,1.41-.87,1.72,1.72,0,0,1,.52.07Z" transform="translate(-72.5 -68.93)"/><path class="cls-4" d="M405.51,93.27a.83.83,0,0,1,.26-.63,1.08,1.08,0,0,1,1.38,0,.79.79,0,0,1,.26.63.82.82,0,0,1-.26.63,1,1,0,0,1-.69.24,1,1,0,0,1-.69-.24A.86.86,0,0,1,405.51,93.27Zm1.8,8h-1.7V94.91h1.7Z" transform="translate(-72.5 -68.93)"/><path class="cls-4" d="M412.38,101.25a2.13,2.13,0,0,1-.17-.57,2.06,2.06,0,0,1-1.6.68,2.24,2.24,0,0,1-1.54-.54,1.72,1.72,0,0,1-.61-1.36,1.77,1.77,0,0,1,.74-1.54,3.74,3.74,0,0,1,2.16-.55h.78V97a1,1,0,0,0-.22-.7.89.89,0,0,0-.72-.27,1,1,0,0,0-.67.21.68.68,0,0,0-.24.56H408.6a1.67,1.67,0,0,1,.34-1,2.12,2.12,0,0,1,1-.73,3.45,3.45,0,0,1,1.39-.27,2.73,2.73,0,0,1,1.86.59,2,2,0,0,1,.69,1.65v2.75a3.07,3.07,0,0,0,.25,1.37v.1Zm-1.4-1.18a1.47,1.47,0,0,0,.69-.17,1.08,1.08,0,0,0,.47-.45V98.36h-.63c-.85,0-1.3.3-1.36.88v.1a.66.66,0,0,0,.22.52A.85.85,0,0,0,411,100.07Z" transform="translate(-72.5 -68.93)"/><path class="cls-4" d="M420.5,98.85l1.17-3.94h1.82l-2.55,7.32-.14.33a2,2,0,0,1-1.88,1.25,2.45,2.45,0,0,1-.75-.12v-1.28h.26a1.38,1.38,0,0,0,.72-.15,1,1,0,0,0,.37-.49l.2-.52-2.22-6.35h1.82Z" transform="translate(-72.5 -68.93)"/><path class="cls-4" d="M433.32,94.14h-2.61v7.11H429V94.14h-2.58V92.71h6.95Z" transform="translate(-72.5 -68.93)"/><path class="cls-4" d="M437.63,100.6a2.12,2.12,0,0,1-1.73.76,2,2,0,0,1-1.56-.58,2.51,2.51,0,0,1-.55-1.72V94.91h1.7V99q0,1,.9,1a1.22,1.22,0,0,0,1.18-.6V94.91h1.7v6.34h-1.59Z" transform="translate(-72.5 -68.93)"/><path class="cls-4" d="M444.11,96.49a4.66,4.66,0,0,0-.61,0,1.23,1.23,0,0,0-1.26.65v4.15h-1.69V94.91h1.6l0,.75a1.57,1.57,0,0,1,1.42-.87,1.77,1.77,0,0,1,.52.07Z" transform="translate(-72.5 -68.93)"/><path class="cls-4" d="M444.91,93.27a.83.83,0,0,1,.26-.63,1.08,1.08,0,0,1,1.38,0,.79.79,0,0,1,.26.63.86.86,0,0,1-.26.63,1,1,0,0,1-.69.24,1,1,0,0,1-.69-.24A.86.86,0,0,1,444.91,93.27Zm1.8,8H445V94.91h1.7Z" transform="translate(-72.5 -68.93)"/><path class="cls-4" d="M451.54,99.49a.55.55,0,0,0-.31-.49,3.64,3.64,0,0,0-1-.31c-1.51-.32-2.27-1-2.27-1.93a1.77,1.77,0,0,1,.7-1.41,2.87,2.87,0,0,1,1.83-.56,3.07,3.07,0,0,1,1.94.57,1.79,1.79,0,0,1,.72,1.47h-1.69a.81.81,0,0,0-.24-.6,1.26,1.26,0,0,0-1.39,0,.6.6,0,0,0-.24.49.53.53,0,0,0,.27.46,2.85,2.85,0,0,0,.9.29,7.11,7.11,0,0,1,1.06.29,1.75,1.75,0,0,1,1.35,1.7,1.66,1.66,0,0,1-.75,1.41,3.23,3.23,0,0,1-1.92.53,3.32,3.32,0,0,1-1.41-.28,2.3,2.3,0,0,1-1-.78,1.79,1.79,0,0,1-.36-1.07h1.61a.92.92,0,0,0,.33.69,1.35,1.35,0,0,0,.84.24,1.25,1.25,0,0,0,.73-.18A.58.58,0,0,0,451.54,99.49Z" transform="translate(-72.5 -68.93)"/><path class="cls-4" d="M455.86,94.91l.06.7a2.22,2.22,0,0,1,1.82-.82,1.68,1.68,0,0,1,1.68,1,2.18,2.18,0,0,1,1.91-1,1.9,1.9,0,0,1,1.53.6,2.73,2.73,0,0,1,.5,1.81v4h-1.69v-4a1.22,1.22,0,0,0-.22-.79.94.94,0,0,0-.74-.24,1,1,0,0,0-1,.72v4.36H458v-4a1.18,1.18,0,0,0-.22-.8,1,1,0,0,0-.74-.24,1.08,1.08,0,0,0-1,.59v4.49h-1.69V94.91Z" transform="translate(-72.5 -68.93)"/><path class="cls-4" d="M464.4,98a3.77,3.77,0,0,1,.36-1.68,2.73,2.73,0,0,1,1.05-1.15,3.05,3.05,0,0,1,1.59-.4,2.89,2.89,0,0,1,2.09.78,3.22,3.22,0,0,1,.91,2.14v.43a3.29,3.29,0,0,1-.82,2.34,3.15,3.15,0,0,1-4.37,0,3.34,3.34,0,0,1-.82-2.39Zm1.69.12a2.42,2.42,0,0,0,.34,1.38,1.14,1.14,0,0,0,1,.48,1.12,1.12,0,0,0,1-.48,2.57,2.57,0,0,0,.34-1.51,2.35,2.35,0,0,0-.34-1.37,1.14,1.14,0,0,0-1-.49,1.13,1.13,0,0,0-1,.49A2.68,2.68,0,0,0,466.09,98.14Z" transform="translate(-72.5 -68.93)"/><path class="cls-4" d="M477.71,98.12h-1.4v3.13h-1.76V92.71h3.17a3.58,3.58,0,0,1,2.33.68,2.31,2.31,0,0,1,.82,1.9,2.58,2.58,0,0,1-.38,1.46,2.55,2.55,0,0,1-1.14.93l1.84,3.48v.09h-1.88Zm-1.4-1.42h1.42a1.41,1.41,0,0,0,1-.34,1.2,1.2,0,0,0,.36-.93,1.29,1.29,0,0,0-.34-1,1.43,1.43,0,0,0-1-.34h-1.41Z" transform="translate(-72.5 -68.93)"/><path class="cls-4" d="M483.92,101.25h-1.69V94.91h1.69Zm-.49-8.92h1.84l-1.62,1.82h-1.38Z" transform="translate(-72.5 -68.93)"/><path class="cls-4" d="M485.12,98a3.77,3.77,0,0,1,.36-1.68,2.66,2.66,0,0,1,1-1.15,3,3,0,0,1,1.58-.4,2.9,2.9,0,0,1,2.1.78,3.17,3.17,0,0,1,.9,2.14l0,.43a3.34,3.34,0,0,1-.82,2.34,3.15,3.15,0,0,1-4.37,0,3.34,3.34,0,0,1-.82-2.39Zm1.69.12a2.42,2.42,0,0,0,.34,1.38,1.13,1.13,0,0,0,1,.48,1.12,1.12,0,0,0,1-.48,2.57,2.57,0,0,0,.34-1.51,2.35,2.35,0,0,0-.34-1.37,1.15,1.15,0,0,0-1-.49,1.12,1.12,0,0,0-1,.49A2.68,2.68,0,0,0,486.81,98.14Z" transform="translate(-72.5 -68.93)"/><path class="cls-4" d="M388.59,113.41a.9.9,0,0,0-.35-.77,4.66,4.66,0,0,0-1.26-.56,9.2,9.2,0,0,1-1.45-.58,2.38,2.38,0,0,1-1.46-2.12,2,2,0,0,1,.39-1.23,2.57,2.57,0,0,1,1.12-.85,4.32,4.32,0,0,1,1.64-.3,3.86,3.86,0,0,1,1.63.33,2.55,2.55,0,0,1,1.11.93,2.5,2.5,0,0,1,.4,1.37H388.6a1.14,1.14,0,0,0-.37-.91,1.56,1.56,0,0,0-1-.32,1.63,1.63,0,0,0-1,.27.86.86,0,0,0-.36.72.8.8,0,0,0,.42.69,4.54,4.54,0,0,0,1.23.53,5.43,5.43,0,0,1,2.19,1.12,2.23,2.23,0,0,1,.69,1.67,2,2,0,0,1-.84,1.73,3.67,3.67,0,0,1-2.26.63,4.37,4.37,0,0,1-1.79-.36,2.84,2.84,0,0,1-1.23-1,2.51,2.51,0,0,1-.43-1.46h1.76c0,.94.57,1.41,1.69,1.41a1.63,1.63,0,0,0,1-.25A.82.82,0,0,0,388.59,113.41Z" transform="translate(-72.5 -68.93)"/><path class="cls-4" d="M395.11,115.65a1.82,1.82,0,0,1-.17-.57,2.08,2.08,0,0,1-1.6.68,2.27,2.27,0,0,1-1.55-.54,1.76,1.76,0,0,1-.61-1.36,1.78,1.78,0,0,1,.75-1.54,3.74,3.74,0,0,1,2.16-.55h.78v-.36a1,1,0,0,0-.23-.7.88.88,0,0,0-.71-.27,1,1,0,0,0-.67.21.68.68,0,0,0-.24.56h-1.7a1.73,1.73,0,0,1,.34-1,2.24,2.24,0,0,1,1-.73,3.5,3.5,0,0,1,1.4-.27,2.73,2.73,0,0,1,1.86.59,2,2,0,0,1,.69,1.65v2.75a2.94,2.94,0,0,0,.25,1.37v.1Zm-1.4-1.18a1.47,1.47,0,0,0,.69-.17,1.08,1.08,0,0,0,.47-.45v-1.09h-.64c-.84,0-1.29.3-1.35.88v.1a.66.66,0,0,0,.22.52A.85.85,0,0,0,393.71,114.47Z" transform="translate(-72.5 -68.93)"/><path class="cls-4" d="M399.43,109.31l.05.73a2.2,2.2,0,0,1,1.82-.85,1.86,1.86,0,0,1,1.5.59,2.75,2.75,0,0,1,.51,1.77v4.1h-1.7v-4.06a1.12,1.12,0,0,0-.23-.78,1.07,1.07,0,0,0-.78-.24,1.15,1.15,0,0,0-1.07.6v4.48h-1.7v-6.34Z" transform="translate(-72.5 -68.93)"/><path class="cls-4" d="M411.13,107.11h1.76V113a2.76,2.76,0,0,1-.37,1.44,2.34,2.34,0,0,1-1,1,3.13,3.13,0,0,1-1.48.34,3,3,0,0,1-2.11-.69,2.45,2.45,0,0,1-.76-1.94h1.77a1.4,1.4,0,0,0,.26.92,1.08,1.08,0,0,0,.84.3,1,1,0,0,0,.8-.35,1.44,1.44,0,0,0,.3-1Z" transform="translate(-72.5 -68.93)"/><path class="cls-4" d="M414,112.42a3.77,3.77,0,0,1,.36-1.68,2.6,2.6,0,0,1,1.05-1.15,3,3,0,0,1,1.58-.4,2.88,2.88,0,0,1,2.09.78,3.13,3.13,0,0,1,.91,2.14v.43a3.33,3.33,0,0,1-.81,2.34,3.17,3.17,0,0,1-4.38,0,3.38,3.38,0,0,1-.81-2.39Zm1.69.12a2.34,2.34,0,0,0,.34,1.38,1.21,1.21,0,0,0,1.93,0,2.56,2.56,0,0,0,.35-1.51A2.35,2.35,0,0,0,418,111a1.2,1.2,0,0,0-1.93,0A2.6,2.6,0,0,0,415.71,112.54Z" transform="translate(-72.5 -68.93)"/><path class="cls-4" d="M424.5,113.89a.55.55,0,0,0-.31-.49,3.93,3.93,0,0,0-1-.32c-1.5-.31-2.26-1-2.26-1.92a1.77,1.77,0,0,1,.7-1.41,2.87,2.87,0,0,1,1.83-.56,3,3,0,0,1,1.93.57,1.77,1.77,0,0,1,.73,1.47h-1.7a.81.81,0,0,0-.23-.6,1.26,1.26,0,0,0-1.39,0,.6.6,0,0,0-.24.49.53.53,0,0,0,.27.46,2.85,2.85,0,0,0,.9.29,7.47,7.47,0,0,1,1.06.29,1.75,1.75,0,0,1,1.35,1.7,1.66,1.66,0,0,1-.75,1.41,3.25,3.25,0,0,1-1.92.53,3.4,3.4,0,0,1-1.42-.28,2.43,2.43,0,0,1-1-.78,1.85,1.85,0,0,1-.35-1.07h1.61a.88.88,0,0,0,.33.69,1.34,1.34,0,0,0,.83.24,1.26,1.26,0,0,0,.74-.18A.58.58,0,0,0,424.5,113.89Z" transform="translate(-72.5 -68.93)"/><path class="cls-4" d="M430.15,115.76a3.12,3.12,0,0,1-2.27-.85,3.05,3.05,0,0,1-.87-2.28v-.17a3.76,3.76,0,0,1,.37-1.7,2.61,2.61,0,0,1,1-1.16,2.87,2.87,0,0,1,1.55-.41,2.6,2.6,0,0,1,2,.82,3.32,3.32,0,0,1,.75,2.32v.7h-4a1.58,1.58,0,0,0,.5,1,1.48,1.48,0,0,0,1,.38,1.82,1.82,0,0,0,1.53-.71l.84.93a2.55,2.55,0,0,1-1,.84A3.37,3.37,0,0,1,430.15,115.76Zm-.19-5.21a1.06,1.06,0,0,0-.82.35,1.73,1.73,0,0,0-.4,1h2.36v-.13a1.27,1.27,0,0,0-.31-.88A1.1,1.1,0,0,0,430,110.55Zm.15-3.9H432l-1.63,1.81H429Z" transform="translate(-72.5 -68.93)"/><path class="cls-4" d="M441.25,113.41a.91.91,0,0,0-.36-.77,4.51,4.51,0,0,0-1.26-.56,9.62,9.62,0,0,1-1.45-.58,2.37,2.37,0,0,1-1.45-2.12,2,2,0,0,1,.39-1.23,2.52,2.52,0,0,1,1.12-.85,4.23,4.23,0,0,1,1.63-.3,3.83,3.83,0,0,1,1.63.33,2.55,2.55,0,0,1,1.11.93,2.42,2.42,0,0,1,.4,1.37h-1.76a1.14,1.14,0,0,0-.37-.91,1.54,1.54,0,0,0-1-.32,1.65,1.65,0,0,0-1,.27.85.85,0,0,0-.35.72.79.79,0,0,0,.41.69,4.48,4.48,0,0,0,1.24.53,5.31,5.31,0,0,1,2.18,1.12,2.23,2.23,0,0,1,.69,1.67,2,2,0,0,1-.84,1.73,3.66,3.66,0,0,1-2.25.63,4.38,4.38,0,0,1-1.8-.36,2.84,2.84,0,0,1-1.23-1,2.59,2.59,0,0,1-.43-1.46h1.77c0,.94.56,1.41,1.69,1.41a1.62,1.62,0,0,0,1-.25A.83.83,0,0,0,441.25,113.41Z" transform="translate(-72.5 -68.93)"/><path class="cls-4" d="M444.17,114.81a.85.85,0,0,1,.28-.65,1.06,1.06,0,0,1,1.37,0,.92.92,0,0,1,0,1.3,1.08,1.08,0,0,1-1.38,0A.85.85,0,0,1,444.17,114.81Z" transform="translate(-72.5 -68.93)"/><path class="cls-4" d="M452.5,113.89h-3.08l-.59,1.76H447l3.18-8.54h1.63l3.19,8.54h-1.87Zm-2.61-1.43H452L451,109.27Z" transform="translate(-72.5 -68.93)"/><path class="cls-4" d="M455.74,114.81a.85.85,0,0,1,.27-.65,1.06,1.06,0,0,1,1.37,0,.92.92,0,0,1,0,1.3,1.08,1.08,0,0,1-1.38,0A.87.87,0,0,1,455.74,114.81Z" transform="translate(-72.5 -68.93)"/><path class="cls-4" d="M382.34,242.34V229.55h3.94a6,6,0,0,1,3,.76,5.2,5.2,0,0,1,2.07,2.16,6.64,6.64,0,0,1,.75,3.18v.59a6.72,6.72,0,0,1-.73,3.18,5.29,5.29,0,0,1-2.07,2.15,6,6,0,0,1-3,.77ZM385,231.68v8.55h1.27a2.84,2.84,0,0,0,2.36-1,4.5,4.5,0,0,0,.84-2.89v-.67a4.64,4.64,0,0,0-.81-3,2.86,2.86,0,0,0-2.36-1Z" transform="translate(-72.5 -68.93)"/><path class="cls-4" d="M393.85,230.37a1.27,1.27,0,0,1,.38-.94,1.49,1.49,0,0,1,1-.37,1.44,1.44,0,0,1,1,.37,1.34,1.34,0,0,1,0,1.89,1.63,1.63,0,0,1-2.07,0A1.24,1.24,0,0,1,393.85,230.37Zm2.7,12H394v-9.51h2.55Z" transform="translate(-72.5 -68.93)"/><path class="cls-4" d="M404,235.22a6.46,6.46,0,0,0-.92-.07,1.86,1.86,0,0,0-1.89,1v6.22h-2.54v-9.51H401l.07,1.14a2.35,2.35,0,0,1,2.12-1.31,2.85,2.85,0,0,1,.79.11Z" transform="translate(-72.5 -68.93)"/><path class="cls-4" d="M409.42,242.52a4.7,4.7,0,0,1-3.41-1.28,4.6,4.6,0,0,1-1.31-3.42v-.25a5.73,5.73,0,0,1,.55-2.56,4.08,4.08,0,0,1,1.57-1.74,4.39,4.39,0,0,1,2.32-.61,4,4,0,0,1,3.07,1.23,5,5,0,0,1,1.12,3.49v1h-6.06a2.38,2.38,0,0,0,.75,1.5,2.24,2.24,0,0,0,1.56.56,2.74,2.74,0,0,0,2.3-1.06l1.25,1.4a4,4,0,0,1-1.55,1.26A5.09,5.09,0,0,1,409.42,242.52Zm-.29-7.81a1.6,1.6,0,0,0-1.23.51,2.69,2.69,0,0,0-.6,1.46h3.53v-.2a1.9,1.9,0,0,0-.45-1.31A1.65,1.65,0,0,0,409.13,234.71Z" transform="translate(-72.5 -68.93)"/><path class="cls-4" d="M418.73,240.47a1.66,1.66,0,0,0,1.14-.39,1.38,1.38,0,0,0,.46-1h2.38a3.28,3.28,0,0,1-.53,1.77,3.59,3.59,0,0,1-1.42,1.25,4.5,4.5,0,0,1-2,.44,4.12,4.12,0,0,1-3.22-1.3,5.15,5.15,0,0,1-1.17-3.58v-.17a5,5,0,0,1,1.16-3.5,4.06,4.06,0,0,1,3.21-1.31,4,4,0,0,1,2.86,1,3.6,3.6,0,0,1,1.1,2.71h-2.38a1.8,1.8,0,0,0-.46-1.21,1.71,1.71,0,0,0-2.5.18,3.76,3.76,0,0,0-.45,2.1v.27a3.79,3.79,0,0,0,.44,2.11A1.56,1.56,0,0,0,418.73,240.47Z" transform="translate(-72.5 -68.93)"/><path class="cls-4" d="M427.2,230.5v2.33h1.62v1.87H427.2v4.74a1.17,1.17,0,0,0,.2.76,1,1,0,0,0,.77.23,4.14,4.14,0,0,0,.75-.06v1.92a5.32,5.32,0,0,1-1.54.23,2.42,2.42,0,0,1-2.72-2.7V234.7h-1.39v-1.87h1.39V230.5Z" transform="translate(-72.5 -68.93)"/><path class="cls-4" d="M429.58,237.5a5.69,5.69,0,0,1,.54-2.52,4.09,4.09,0,0,1,1.57-1.72,4.65,4.65,0,0,1,2.38-.6,4.31,4.31,0,0,1,3.14,1.18,4.66,4.66,0,0,1,1.36,3.19l0,.66a5,5,0,0,1-1.22,3.51,4.74,4.74,0,0,1-6.56,0,5,5,0,0,1-1.23-3.59Zm2.54.18a3.53,3.53,0,0,0,.51,2.07,1.83,1.83,0,0,0,2.9,0,3.85,3.85,0,0,0,.52-2.26,3.46,3.46,0,0,0-.52-2.06,1.68,1.68,0,0,0-1.46-.73,1.66,1.66,0,0,0-1.44.72A4,4,0,0,0,432.12,237.68Z" transform="translate(-72.5 -68.93)"/><path class="cls-4" d="M445.5,235.22a6.46,6.46,0,0,0-.92-.07,1.86,1.86,0,0,0-1.89,1v6.22h-2.54v-9.51h2.4l.07,1.14a2.35,2.35,0,0,1,2.12-1.31,2.85,2.85,0,0,1,.79.11Z" transform="translate(-72.5 -68.93)"/><path class="cls-4" d="M446.7,230.37a1.27,1.27,0,0,1,.38-.94,1.48,1.48,0,0,1,1-.37,1.47,1.47,0,0,1,1,.37,1.34,1.34,0,0,1,0,1.89,1.63,1.63,0,0,1-2.07,0A1.24,1.24,0,0,1,446.7,230.37Zm2.7,12h-2.55v-9.51h2.55Z" transform="translate(-72.5 -68.93)"/><path class="cls-4" d="M451.1,237.5a5.69,5.69,0,0,1,.54-2.52,4,4,0,0,1,1.57-1.72,4.6,4.6,0,0,1,2.38-.6,4.31,4.31,0,0,1,3.14,1.18,4.75,4.75,0,0,1,1.36,3.19v.66a5,5,0,0,1-1.22,3.51,4.74,4.74,0,0,1-6.56,0,5,5,0,0,1-1.22-3.59Zm2.54.18a3.53,3.53,0,0,0,.51,2.07,1.67,1.67,0,0,0,1.45.72,1.71,1.71,0,0,0,1.45-.71,3.93,3.93,0,0,0,.51-2.26,3.54,3.54,0,0,0-.51-2.06,1.69,1.69,0,0,0-1.46-.73,1.66,1.66,0,0,0-1.44.72A4,4,0,0,0,453.64,237.68Z" transform="translate(-72.5 -68.93)"/><path class="cls-5" d="M350.58,503.19V490.4h3.94a6,6,0,0,1,3,.76,5.2,5.2,0,0,1,2.07,2.16,6.61,6.61,0,0,1,.75,3.18v.59a6.72,6.72,0,0,1-.73,3.18,5.29,5.29,0,0,1-2.07,2.15,6,6,0,0,1-3,.77Zm2.64-10.66v8.54h1.27a2.83,2.83,0,0,0,2.36-1,4.5,4.5,0,0,0,.84-2.89v-.67a4.62,4.62,0,0,0-.81-3,2.86,2.86,0,0,0-2.36-1Z" transform="translate(-72.5 -68.93)"/><path class="cls-5" d="M362.09,491.22a1.24,1.24,0,0,1,.39-.94,1.63,1.63,0,0,1,2.07,0,1.34,1.34,0,0,1,0,1.89,1.43,1.43,0,0,1-1,.37,1.46,1.46,0,0,1-1-.37A1.25,1.25,0,0,1,362.09,491.22Zm2.7,12h-2.55v-9.51h2.55Z" transform="translate(-72.5 -68.93)"/><path class="cls-5" d="M372.23,496.06a8.36,8.36,0,0,0-.92-.07,1.87,1.87,0,0,0-1.89,1v6.22h-2.54v-9.51h2.4l.07,1.14a2.35,2.35,0,0,1,2.12-1.31,2.52,2.52,0,0,1,.79.11Z" transform="translate(-72.5 -68.93)"/><path class="cls-5" d="M377.66,503.37a4.66,4.66,0,0,1-3.41-1.29,4.56,4.56,0,0,1-1.31-3.41v-.25a5.7,5.7,0,0,1,.55-2.56,4,4,0,0,1,1.57-1.74,4.39,4.39,0,0,1,2.32-.61,4,4,0,0,1,3.07,1.23,5,5,0,0,1,1.12,3.49v1h-6.06a2.4,2.4,0,0,0,.75,1.5,2.25,2.25,0,0,0,1.57.56,2.74,2.74,0,0,0,2.29-1.06l1.25,1.39a3.9,3.9,0,0,1-1.55,1.27A5.09,5.09,0,0,1,377.66,503.37Zm-.29-7.82a1.61,1.61,0,0,0-1.23.52,2.69,2.69,0,0,0-.6,1.46h3.53v-.2a1.88,1.88,0,0,0-.45-1.31A1.65,1.65,0,0,0,377.37,495.55Z" transform="translate(-72.5 -68.93)"/><path class="cls-5" d="M387,501.32a1.64,1.64,0,0,0,1.14-.39,1.38,1.38,0,0,0,.46-1H391a3.28,3.28,0,0,1-.53,1.77,3.5,3.5,0,0,1-1.42,1.24,4.38,4.38,0,0,1-2,.45,4.12,4.12,0,0,1-3.22-1.3,5.15,5.15,0,0,1-1.17-3.58v-.17a5.1,5.1,0,0,1,1.16-3.5,4.06,4.06,0,0,1,3.21-1.31,4,4,0,0,1,2.86,1,3.59,3.59,0,0,1,1.1,2.7h-2.38a1.8,1.8,0,0,0-.46-1.2,1.69,1.69,0,0,0-2.5.18,3.76,3.76,0,0,0-.45,2.1v.26a3.92,3.92,0,0,0,.44,2.12A1.56,1.56,0,0,0,387,501.32Z" transform="translate(-72.5 -68.93)"/><path class="cls-5" d="M395.44,491.34v2.34h1.62v1.87h-1.62v4.74a1.17,1.17,0,0,0,.2.76,1,1,0,0,0,.77.23,3.36,3.36,0,0,0,.75-.07v1.93a5.32,5.32,0,0,1-1.54.23,2.42,2.42,0,0,1-2.72-2.7v-5.12h-1.39v-1.87h1.39v-2.34Z" transform="translate(-72.5 -68.93)"/><path class="cls-5" d="M397.82,498.35a5.56,5.56,0,0,1,.55-2.52,4,4,0,0,1,1.56-1.72,4.65,4.65,0,0,1,2.38-.6,4.33,4.33,0,0,1,3.14,1.17,4.7,4.7,0,0,1,1.36,3.2l0,.65a5,5,0,0,1-1.22,3.51,4.72,4.72,0,0,1-6.56,0,5,5,0,0,1-1.23-3.59Zm2.54.18a3.55,3.55,0,0,0,.51,2.07,1.83,1.83,0,0,0,2.9,0,3.86,3.86,0,0,0,.52-2.27,3.45,3.45,0,0,0-.52-2,1.8,1.8,0,0,0-2.9,0A3.94,3.94,0,0,0,400.36,498.53Z" transform="translate(-72.5 -68.93)"/><path class="cls-5" d="M413.74,496.06a8.36,8.36,0,0,0-.92-.07,1.87,1.87,0,0,0-1.89,1v6.22h-2.54v-9.51h2.4l.07,1.14a2.35,2.35,0,0,1,2.12-1.31,2.52,2.52,0,0,1,.79.11Z" transform="translate(-72.5 -68.93)"/><path class="cls-5" d="M427.31,497.65h-5.06v3.42h5.94v2.12h-8.58V490.4h8.56v2.13h-5.92v3.05h5.06Z" transform="translate(-72.5 -68.93)"/><path class="cls-5" d="M432.26,493.68v10a3.39,3.39,0,0,1-.84,2.45A3.18,3.18,0,0,1,429,507a5.1,5.1,0,0,1-1.25-.15v-2a5,5,0,0,0,.8.08c.76,0,1.15-.41,1.15-1.22V493.68Zm-2.75-2.46a1.24,1.24,0,0,1,.38-.94,1.65,1.65,0,0,1,2.08,0,1.24,1.24,0,0,1,.38.94,1.25,1.25,0,0,1-.39.95,1.62,1.62,0,0,1-2.06,0A1.25,1.25,0,0,1,429.51,491.22Z" transform="translate(-72.5 -68.93)"/><path class="cls-5" d="M438.62,503.37a4.68,4.68,0,0,1-3.41-1.29,4.56,4.56,0,0,1-1.31-3.41v-.25a5.7,5.7,0,0,1,.55-2.56,4,4,0,0,1,1.57-1.74,4.39,4.39,0,0,1,2.32-.61,4,4,0,0,1,3.07,1.23,5,5,0,0,1,1.12,3.49v1h-6a2.34,2.34,0,0,0,.74,1.5,2.25,2.25,0,0,0,1.57.56,2.73,2.73,0,0,0,2.29-1.06l1.25,1.39a3.9,3.9,0,0,1-1.55,1.27A5.09,5.09,0,0,1,438.62,503.37Zm-.29-7.82a1.62,1.62,0,0,0-1.23.52,2.69,2.69,0,0,0-.6,1.46H440v-.2a1.94,1.94,0,0,0-.46-1.31A1.64,1.64,0,0,0,438.33,495.55Z" transform="translate(-72.5 -68.93)"/><path class="cls-5" d="M447.93,501.32a1.64,1.64,0,0,0,1.14-.39,1.34,1.34,0,0,0,.46-1h2.38a3.28,3.28,0,0,1-.53,1.77,3.43,3.43,0,0,1-1.42,1.24,4.38,4.38,0,0,1-2,.45,4.12,4.12,0,0,1-3.22-1.3,5.15,5.15,0,0,1-1.17-3.58v-.17a5.05,5.05,0,0,1,1.17-3.5,4,4,0,0,1,3.2-1.31,4,4,0,0,1,2.86,1,3.59,3.59,0,0,1,1.1,2.7h-2.38a1.75,1.75,0,0,0-.46-1.2,1.69,1.69,0,0,0-2.5.18,3.76,3.76,0,0,0-.45,2.1v.26a3.82,3.82,0,0,0,.45,2.12A1.53,1.53,0,0,0,447.93,501.32Z" transform="translate(-72.5 -68.93)"/><path class="cls-5" d="M459.05,502.23a3.17,3.17,0,0,1-2.6,1.14,3,3,0,0,1-2.33-.88,3.75,3.75,0,0,1-.82-2.58v-6.23h2.54v6.15c0,1,.45,1.49,1.35,1.49a1.85,1.85,0,0,0,1.78-.9v-6.74h2.55v9.51h-2.4Z" transform="translate(-72.5 -68.93)"/><path class="cls-5" d="M466.47,491.34v2.34h1.63v1.87h-1.63v4.74a1.17,1.17,0,0,0,.2.76,1.05,1.05,0,0,0,.78.23,3.42,3.42,0,0,0,.75-.07v1.93a5.37,5.37,0,0,1-1.54.23,2.43,2.43,0,0,1-2.73-2.7v-5.12h-1.39v-1.87h1.39v-2.34Z" transform="translate(-72.5 -68.93)"/><path class="cls-5" d="M469.5,491.22a1.24,1.24,0,0,1,.38-.94,1.45,1.45,0,0,1,1-.37,1.48,1.48,0,0,1,1,.37,1.27,1.27,0,0,1,.38.94,1.25,1.25,0,0,1-.39.95,1.62,1.62,0,0,1-2.06,0A1.25,1.25,0,0,1,469.5,491.22Zm2.69,12h-2.54v-9.51h2.54Z" transform="translate(-72.5 -68.93)"/><path class="cls-5" d="M477.85,500.09l1.76-6.41h2.66l-3.21,9.51h-2.43l-3.21-9.51h2.66Z" transform="translate(-72.5 -68.93)"/><path class="cls-5" d="M482.86,498.35a5.69,5.69,0,0,1,.54-2.52,4,4,0,0,1,1.57-1.72,4.6,4.6,0,0,1,2.38-.6,4.34,4.34,0,0,1,3.14,1.17,4.79,4.79,0,0,1,1.36,3.2v.65a4.94,4.94,0,0,1-1.22,3.51,4.21,4.21,0,0,1-3.28,1.33,4.26,4.26,0,0,1-3.28-1.32,5,5,0,0,1-1.22-3.59Zm2.54.18a3.55,3.55,0,0,0,.51,2.07,1.67,1.67,0,0,0,1.45.72,1.71,1.71,0,0,0,1.45-.71,4,4,0,0,0,.51-2.27,3.53,3.53,0,0,0-.51-2,1.7,1.7,0,0,0-1.46-.74,1.67,1.67,0,0,0-1.44.73A3.94,3.94,0,0,0,485.4,498.53Z" transform="translate(-72.5 -68.93)"/><path class="cls-5" d="M384.1,509.06h1.76V515a2.85,2.85,0,0,1-.36,1.44,2.49,2.49,0,0,1-1,1,3.13,3.13,0,0,1-1.48.34,3,3,0,0,1-2.11-.69,2.52,2.52,0,0,1-.76-1.95h1.77a1.36,1.36,0,0,0,.27.93,1,1,0,0,0,.83.3,1,1,0,0,0,.8-.35,1.45,1.45,0,0,0,.3-1Z" transform="translate(-72.5 -68.93)"/><path class="cls-5" d="M387,514.36a3.77,3.77,0,0,1,.36-1.68,2.69,2.69,0,0,1,1-1.14,3,3,0,0,1,1.58-.41,2.91,2.91,0,0,1,2.1.79,3.12,3.12,0,0,1,.9,2.13l0,.44a3.34,3.34,0,0,1-.82,2.34,3.15,3.15,0,0,1-4.37,0,3.35,3.35,0,0,1-.82-2.39Zm1.69.12a2.43,2.43,0,0,0,.34,1.39,1.14,1.14,0,0,0,1,.47,1.11,1.11,0,0,0,1-.47,2.59,2.59,0,0,0,.34-1.51A2.33,2.33,0,0,0,391,513a1.21,1.21,0,0,0-1.94,0A2.73,2.73,0,0,0,388.68,514.48Z" transform="translate(-72.5 -68.93)"/><path class="cls-5" d="M397.47,515.84a.54.54,0,0,0-.31-.49,3.27,3.27,0,0,0-1-.32c-1.51-.32-2.26-1-2.26-1.92a1.74,1.74,0,0,1,.7-1.41,2.78,2.78,0,0,1,1.83-.57,3,3,0,0,1,1.93.57,1.8,1.8,0,0,1,.72,1.48h-1.69a.81.81,0,0,0-.24-.6,1,1,0,0,0-.73-.24,1,1,0,0,0-.66.2.59.59,0,0,0-.24.49.52.52,0,0,0,.27.45,2.58,2.58,0,0,0,.9.3,7.76,7.76,0,0,1,1.07.28,1.76,1.76,0,0,1,1.34,1.71,1.63,1.63,0,0,1-.75,1.4,3.16,3.16,0,0,1-1.92.54,3.32,3.32,0,0,1-1.41-.29,2.27,2.27,0,0,1-1-.77,1.78,1.78,0,0,1-.35-1.07h1.6a.89.89,0,0,0,.34.69,1.3,1.3,0,0,0,.83.24,1.16,1.16,0,0,0,.73-.19A.56.56,0,0,0,397.47,515.84Z" transform="translate(-72.5 -68.93)"/><path class="cls-5" d="M403.13,517.71a3.11,3.11,0,0,1-2.27-.86,3,3,0,0,1-.88-2.28v-.16a3.77,3.77,0,0,1,.37-1.71,2.69,2.69,0,0,1,1-1.16,2.93,2.93,0,0,1,1.54-.41A2.63,2.63,0,0,1,405,512a3.35,3.35,0,0,1,.74,2.32V515h-4a1.57,1.57,0,0,0,.49,1,1.51,1.51,0,0,0,1.05.37,1.82,1.82,0,0,0,1.53-.71l.83.94a2.52,2.52,0,0,1-1,.84A3.44,3.44,0,0,1,403.13,517.71Zm-.2-5.21a1,1,0,0,0-.81.34,1.77,1.77,0,0,0-.41,1h2.36v-.14a1.3,1.3,0,0,0-.3-.87A1.1,1.1,0,0,0,402.93,512.5Zm.16-3.91h1.84l-1.62,1.82h-1.38Z" transform="translate(-72.5 -68.93)"/><path class="cls-5" d="M411.55,516.18h3.73v1.41h-5.49v-8.53h1.76Z" transform="translate(-72.5 -68.93)"/><path class="cls-5" d="M419.9,517a2.13,2.13,0,0,1-1.74.76,2,2,0,0,1-1.55-.59,2.49,2.49,0,0,1-.55-1.71v-4.16h1.69v4.1q0,1,.9,1a1.24,1.24,0,0,0,1.19-.59v-4.5h1.7v6.34h-1.6Z" transform="translate(-72.5 -68.93)"/><path class="cls-5" d="M422.8,509.61a.86.86,0,0,1,.26-.63,1.11,1.11,0,0,1,1.38,0,.89.89,0,0,1,0,1.26.93.93,0,0,1-.69.25,1,1,0,0,1-.69-.25A.83.83,0,0,1,422.8,509.61Zm1.8,8h-1.7v-6.34h1.7Z" transform="translate(-72.5 -68.93)"/><path class="cls-5" d="M429.43,515.84a.54.54,0,0,0-.31-.49,3.25,3.25,0,0,0-1-.32c-1.5-.32-2.26-1-2.26-1.92a1.77,1.77,0,0,1,.7-1.41,2.82,2.82,0,0,1,1.83-.57,3,3,0,0,1,1.93.57,1.78,1.78,0,0,1,.73,1.48h-1.69a.81.81,0,0,0-.24-.6,1.21,1.21,0,0,0-1.39,0,.59.59,0,0,0-.24.49.52.52,0,0,0,.27.45,2.58,2.58,0,0,0,.9.3,7.23,7.23,0,0,1,1.06.28,1.76,1.76,0,0,1,1.35,1.71,1.63,1.63,0,0,1-.75,1.4,3.16,3.16,0,0,1-1.92.54,3.32,3.32,0,0,1-1.41-.29,2.21,2.21,0,0,1-1-.77,1.79,1.79,0,0,1-.36-1.07h1.61a.88.88,0,0,0,.33.69,1.35,1.35,0,0,0,.84.24,1.18,1.18,0,0,0,.73-.19A.56.56,0,0,0,429.43,515.84Z" transform="translate(-72.5 -68.93)"/><path class="cls-5" d="M438.42,514.47H437v3.12h-1.75v-8.53h3.17a3.65,3.65,0,0,1,2.33.67,2.36,2.36,0,0,1,.82,1.91,2.6,2.6,0,0,1-.38,1.45,2.53,2.53,0,0,1-1.15.93l1.85,3.49v.08H440ZM437,513h1.42a1.5,1.5,0,0,0,1-.33,1.23,1.23,0,0,0,.36-.93,1.29,1.29,0,0,0-.34-.95,1.43,1.43,0,0,0-1.05-.35H437Z" transform="translate(-72.5 -68.93)"/><path class="cls-5" d="M442.55,514.36a3.77,3.77,0,0,1,.36-1.68,2.63,2.63,0,0,1,1-1.14,3,3,0,0,1,1.58-.41,2.91,2.91,0,0,1,2.1.79,3.12,3.12,0,0,1,.9,2.13v.44a3.33,3.33,0,0,1-.81,2.34,3.15,3.15,0,0,1-4.37,0,3.35,3.35,0,0,1-.82-2.39Zm1.69.12a2.43,2.43,0,0,0,.34,1.39,1.14,1.14,0,0,0,1,.47,1.13,1.13,0,0,0,1-.47,2.59,2.59,0,0,0,.34-1.51,2.33,2.33,0,0,0-.34-1.37,1.21,1.21,0,0,0-1.94,0A2.73,2.73,0,0,0,444.24,514.48Z" transform="translate(-72.5 -68.93)"/><path class="cls-5" d="M452.23,516.34a1.13,1.13,0,0,0,.77-.25.94.94,0,0,0,.3-.69h1.59a2.23,2.23,0,0,1-.35,1.18,2.26,2.26,0,0,1-1,.83,2.92,2.92,0,0,1-1.33.3,2.74,2.74,0,0,1-2.14-.87,3.42,3.42,0,0,1-.79-2.38v-.11a3.38,3.38,0,0,1,.78-2.34,2.74,2.74,0,0,1,2.14-.88,2.69,2.69,0,0,1,1.91.68,2.39,2.39,0,0,1,.73,1.8H453.3a1.19,1.19,0,0,0-.3-.8,1,1,0,0,0-.78-.31,1,1,0,0,0-.89.43,2.53,2.53,0,0,0-.3,1.4v.18a2.55,2.55,0,0,0,.3,1.41A1,1,0,0,0,452.23,516.34Z" transform="translate(-72.5 -68.93)"/><path class="cls-5" d="M455.59,514.36a3.64,3.64,0,0,1,.37-1.68,2.67,2.67,0,0,1,1-1.14,3.06,3.06,0,0,1,1.59-.41,2.9,2.9,0,0,1,2.09.79,3.18,3.18,0,0,1,.91,2.13v.44a3.29,3.29,0,0,1-.82,2.34,3.15,3.15,0,0,1-4.37,0,3.35,3.35,0,0,1-.82-2.39Zm1.7.12a2.44,2.44,0,0,0,.33,1.39,1.16,1.16,0,0,0,1,.47,1.11,1.11,0,0,0,1-.47,2.59,2.59,0,0,0,.34-1.51,2.33,2.33,0,0,0-.34-1.37,1.21,1.21,0,0,0-1.94,0A2.73,2.73,0,0,0,457.29,514.48Z" transform="translate(-72.5 -68.93)"/><path class="cls-4" d="M381,370.06v4.51h-2.64v-12.8h5a5.79,5.79,0,0,1,2.54.53,3.84,3.84,0,0,1,1.68,1.5,4.11,4.11,0,0,1,.59,2.21,3.69,3.69,0,0,1-1.29,3,5.35,5.35,0,0,1-3.56,1.08Zm0-2.13h2.35a2.32,2.32,0,0,0,1.6-.5,1.75,1.75,0,0,0,.55-1.4,2.13,2.13,0,0,0-.55-1.52,2.05,2.05,0,0,0-1.53-.6H381Z" transform="translate(-72.5 -68.93)"/><path class="cls-4" d="M395.11,367.44a8.38,8.38,0,0,0-.91-.07,1.85,1.85,0,0,0-1.89,1v6.22h-2.54v-9.51h2.4l.07,1.13a2.35,2.35,0,0,1,2.11-1.31,2.52,2.52,0,0,1,.79.12Z" transform="translate(-72.5 -68.93)"/><path class="cls-4" d="M400.54,374.75a4.64,4.64,0,0,1-3.4-1.29,4.53,4.53,0,0,1-1.32-3.42v-.24a5.7,5.7,0,0,1,.56-2.56,4,4,0,0,1,1.56-1.74,4.4,4.4,0,0,1,2.32-.62,3.92,3.92,0,0,1,3.07,1.24,5,5,0,0,1,1.12,3.48v1H398.4a2.39,2.39,0,0,0,.74,1.5,2.27,2.27,0,0,0,1.57.56,2.73,2.73,0,0,0,2.29-1.07l1.25,1.4a3.8,3.8,0,0,1-1.55,1.26A5,5,0,0,1,400.54,374.75Zm-.29-7.82a1.59,1.59,0,0,0-1.23.52,2.65,2.65,0,0,0-.6,1.46H402v-.2a1.94,1.94,0,0,0-.46-1.31A1.64,1.64,0,0,0,400.25,366.93Z" transform="translate(-72.5 -68.93)"/><path class="cls-4" d="M411,371.94a.81.81,0,0,0-.46-.73,5.19,5.19,0,0,0-1.48-.48q-3.39-.72-3.39-2.88a2.62,2.62,0,0,1,1.05-2.12,4.28,4.28,0,0,1,2.75-.85,4.54,4.54,0,0,1,2.89.86,2.66,2.66,0,0,1,1.09,2.21H411a1.25,1.25,0,0,0-.35-.9,1.48,1.48,0,0,0-1.1-.35,1.51,1.51,0,0,0-1,.29.9.9,0,0,0-.35.73.82.82,0,0,0,.4.69,4.13,4.13,0,0,0,1.35.44,11.25,11.25,0,0,1,1.6.43,2.62,2.62,0,0,1,2,2.56,2.48,2.48,0,0,1-1.11,2.1,4.82,4.82,0,0,1-2.89.81,5.11,5.11,0,0,1-2.12-.43,3.46,3.46,0,0,1-1.45-1.17,2.72,2.72,0,0,1-.53-1.6h2.41a1.3,1.3,0,0,0,.5,1,2,2,0,0,0,1.25.36,1.88,1.88,0,0,0,1.1-.27A.87.87,0,0,0,411,371.94Z" transform="translate(-72.5 -68.93)"/><path class="cls-4" d="M415.13,362.6a1.27,1.27,0,0,1,.38-.94,1.44,1.44,0,0,1,1-.37,1.42,1.42,0,0,1,1,.37,1.34,1.34,0,0,1,0,1.89,1.63,1.63,0,0,1-2.07,0A1.25,1.25,0,0,1,415.13,362.6Zm2.7,12h-2.55v-9.51h2.55Z" transform="translate(-72.5 -68.93)"/><path class="cls-4" d="M419.53,369.75a5.77,5.77,0,0,1,1-3.55,3.25,3.25,0,0,1,2.73-1.32,2.94,2.94,0,0,1,2.3,1v-4.85h2.54v13.5H425.8l-.12-1a3,3,0,0,1-2.45,1.19,3.22,3.22,0,0,1-2.69-1.33A5.87,5.87,0,0,1,419.53,369.75Zm2.54.18a3.79,3.79,0,0,0,.46,2.06,1.52,1.52,0,0,0,1.35.71,1.71,1.71,0,0,0,1.67-1V368a1.68,1.68,0,0,0-1.65-1C422.68,367,422.07,368,422.07,369.93Z" transform="translate(-72.5 -68.93)"/><path class="cls-4" d="M434.44,374.75a4.64,4.64,0,0,1-3.4-1.29,4.53,4.53,0,0,1-1.32-3.42v-.24a5.84,5.84,0,0,1,.55-2.56,4,4,0,0,1,1.57-1.74,4.4,4.4,0,0,1,2.32-.62,3.92,3.92,0,0,1,3.07,1.24,5,5,0,0,1,1.12,3.48v1H432.3a2.39,2.39,0,0,0,.74,1.5,2.25,2.25,0,0,0,1.57.56,2.73,2.73,0,0,0,2.29-1.07l1.25,1.4a3.8,3.8,0,0,1-1.55,1.26A5,5,0,0,1,434.44,374.75Zm-.29-7.82a1.59,1.59,0,0,0-1.23.52,2.65,2.65,0,0,0-.6,1.46h3.54v-.2a1.94,1.94,0,0,0-.46-1.31A1.64,1.64,0,0,0,434.15,366.93Z" transform="translate(-72.5 -68.93)"/><path class="cls-4" d="M442.13,365.06l.08,1.1a3.32,3.32,0,0,1,2.73-1.28,2.76,2.76,0,0,1,2.25.89,4.1,4.1,0,0,1,.76,2.66v6.14h-2.54v-6.08a1.65,1.65,0,0,0-.35-1.17,1.56,1.56,0,0,0-1.17-.37,1.74,1.74,0,0,0-1.61.91v6.71h-2.54v-9.51Z" transform="translate(-72.5 -68.93)"/><path class="cls-4" d="M452.92,362.72v2.34h1.62v1.86h-1.62v4.75a1.13,1.13,0,0,0,.2.76,1,1,0,0,0,.77.22,4.22,4.22,0,0,0,.75-.06v1.93a5.32,5.32,0,0,1-1.54.23,2.42,2.42,0,0,1-2.72-2.7v-5.13H449v-1.86h1.39v-2.34Z" transform="translate(-72.5 -68.93)"/><path class="cls-4" d="M460.33,374.75a4.64,4.64,0,0,1-3.4-1.29,4.53,4.53,0,0,1-1.32-3.42v-.24a5.7,5.7,0,0,1,.56-2.56,4,4,0,0,1,1.57-1.74,4.34,4.34,0,0,1,2.31-.62,3.91,3.91,0,0,1,3.07,1.24,5,5,0,0,1,1.12,3.48v1h-6.05a2.39,2.39,0,0,0,.74,1.5,2.27,2.27,0,0,0,1.57.56,2.73,2.73,0,0,0,2.29-1.07L464,373a3.76,3.76,0,0,1-1.54,1.26A5,5,0,0,1,460.33,374.75Zm-.29-7.82a1.55,1.55,0,0,0-1.22.52,2.59,2.59,0,0,0-.61,1.46h3.54v-.2a1.89,1.89,0,0,0-.46-1.31A1.64,1.64,0,0,0,460,366.93Z" transform="translate(-72.5 -68.93)"/><path class="cls-4" d="M126.94,363.91H123v10.66h-2.64V363.91h-3.87v-2.14h10.43Z" transform="translate(-72.5 -68.93)"/><path class="cls-4" d="M131.87,374.75a4.66,4.66,0,0,1-3.41-1.29,4.53,4.53,0,0,1-1.31-3.42v-.24a5.7,5.7,0,0,1,.55-2.56,4,4,0,0,1,1.57-1.74,4.39,4.39,0,0,1,2.31-.62,3.93,3.93,0,0,1,3.08,1.24,5,5,0,0,1,1.12,3.48v1h-6.06a2.39,2.39,0,0,0,.74,1.5,2.29,2.29,0,0,0,1.57.56,2.75,2.75,0,0,0,2.3-1.07l1.24,1.4a3.76,3.76,0,0,1-1.54,1.26A5,5,0,0,1,131.87,374.75Zm-.29-7.82a1.56,1.56,0,0,0-1.23.52,2.65,2.65,0,0,0-.6,1.46h3.53v-.2a1.84,1.84,0,0,0-.46-1.31A1.63,1.63,0,0,0,131.58,366.93Z" transform="translate(-72.5 -68.93)"/><path class="cls-4" d="M142.37,371.94a.83.83,0,0,0-.46-.73,5.19,5.19,0,0,0-1.48-.48Q137,370,137,367.85a2.62,2.62,0,0,1,1.05-2.12,4.28,4.28,0,0,1,2.75-.85,4.57,4.57,0,0,1,2.9.86,2.68,2.68,0,0,1,1.08,2.21h-2.54a1.25,1.25,0,0,0-.35-.9,1.87,1.87,0,0,0-2.09-.06.88.88,0,0,0-.35.73.8.8,0,0,0,.4.69,4,4,0,0,0,1.35.44,11.63,11.63,0,0,1,1.6.43,2.62,2.62,0,0,1,2,2.56,2.46,2.46,0,0,1-1.12,2.1,4.77,4.77,0,0,1-2.88.81,5,5,0,0,1-2.12-.43,3.49,3.49,0,0,1-1.46-1.17,2.72,2.72,0,0,1-.53-1.6h2.41a1.33,1.33,0,0,0,.5,1,2,2,0,0,0,1.25.36,1.89,1.89,0,0,0,1.11-.27A.9.9,0,0,0,142.37,371.94Z" transform="translate(-72.5 -68.93)"/><path class="cls-4" d="M146.08,369.73a5.63,5.63,0,0,1,.54-2.52,4.09,4.09,0,0,1,1.57-1.72,4.63,4.63,0,0,1,2.38-.61,4.35,4.35,0,0,1,3.14,1.18,4.73,4.73,0,0,1,1.36,3.2l0,.65a4.94,4.94,0,0,1-1.23,3.51,4.2,4.2,0,0,1-3.27,1.33,4.29,4.29,0,0,1-3.29-1.32,5.1,5.1,0,0,1-1.22-3.59Zm2.54.18a3.55,3.55,0,0,0,.51,2.07,1.67,1.67,0,0,0,1.46.72A1.7,1.7,0,0,0,152,372a3.94,3.94,0,0,0,.52-2.27,3.58,3.58,0,0,0-.52-2.06,1.71,1.71,0,0,0-1.46-.73,1.65,1.65,0,0,0-1.44.73A3.94,3.94,0,0,0,148.62,369.91Z" transform="translate(-72.5 -68.93)"/><path class="cls-4" d="M162,367.44a8.2,8.2,0,0,0-.91-.07,1.87,1.87,0,0,0-1.89,1v6.22h-2.54v-9.51h2.4l.07,1.13a2.36,2.36,0,0,1,2.12-1.31,2.56,2.56,0,0,1,.79.12Z" transform="translate(-72.5 -68.93)"/><path class="cls-4" d="M167.43,374.75a4.66,4.66,0,0,1-3.41-1.29,4.53,4.53,0,0,1-1.31-3.42v-.24a5.7,5.7,0,0,1,.55-2.56,4,4,0,0,1,1.57-1.74,4.4,4.4,0,0,1,2.32-.62,3.92,3.92,0,0,1,3.07,1.24,5,5,0,0,1,1.12,3.48v1h-6.06a2.39,2.39,0,0,0,.74,1.5,2.29,2.29,0,0,0,1.57.56,2.75,2.75,0,0,0,2.3-1.07l1.25,1.4a3.86,3.86,0,0,1-1.55,1.26A5,5,0,0,1,167.43,374.75Zm-.29-7.82a1.56,1.56,0,0,0-1.23.52,2.65,2.65,0,0,0-.6,1.46h3.53v-.2a1.84,1.84,0,0,0-.46-1.31A1.61,1.61,0,0,0,167.14,366.93Z" transform="translate(-72.5 -68.93)"/><path class="cls-4" d="M178.12,367.44a8.2,8.2,0,0,0-.91-.07,1.87,1.87,0,0,0-1.89,1v6.22h-2.54v-9.51h2.4l.07,1.13a2.35,2.35,0,0,1,2.12-1.31,2.56,2.56,0,0,1,.79.12Z" transform="translate(-72.5 -68.93)"/><path class="cls-4" d="M178.63,369.73a5.5,5.5,0,0,1,.55-2.52,4,4,0,0,1,1.57-1.72,4.59,4.59,0,0,1,2.37-.61,4.38,4.38,0,0,1,3.15,1.18,4.72,4.72,0,0,1,1.35,3.2l0,.65a5,5,0,0,1-1.22,3.51,4.72,4.72,0,0,1-6.56,0,5.06,5.06,0,0,1-1.23-3.59Zm2.54.18a3.55,3.55,0,0,0,.51,2.07,1.83,1.83,0,0,0,2.9,0,3.86,3.86,0,0,0,.52-2.27,3.51,3.51,0,0,0-.52-2.06,1.69,1.69,0,0,0-1.46-.73,1.65,1.65,0,0,0-1.44.73A3.94,3.94,0,0,0,181.17,369.91Z" transform="translate(-72.5 -68.93)"/><path class="cls-4" d="M658.79,371.21a1.31,1.31,0,0,0-.53-1.14,6.86,6.86,0,0,0-1.89-.85,13.25,13.25,0,0,1-2.17-.87,3.55,3.55,0,0,1-2.18-3.18,3.05,3.05,0,0,1,.58-1.84,3.81,3.81,0,0,1,1.68-1.28,6.42,6.42,0,0,1,2.46-.45,5.78,5.78,0,0,1,2.44.49,3.9,3.9,0,0,1,1.66,1.41,3.63,3.63,0,0,1,.6,2.05H658.8a1.71,1.71,0,0,0-.55-1.36,2.26,2.26,0,0,0-1.56-.49,2.39,2.39,0,0,0-1.5.41,1.28,1.28,0,0,0-.54,1.07,1.23,1.23,0,0,0,.63,1.05,7.37,7.37,0,0,0,1.85.79,8,8,0,0,1,3.28,1.68,3.37,3.37,0,0,1,1,2.5,3.08,3.08,0,0,1-1.26,2.6,5.51,5.51,0,0,1-3.38.95,6.53,6.53,0,0,1-2.69-.54,4.21,4.21,0,0,1-1.85-1.49,3.73,3.73,0,0,1-.64-2.18h2.65c0,1.42.84,2.12,2.53,2.12a2.41,2.41,0,0,0,1.46-.38A1.22,1.22,0,0,0,658.79,371.21Z" transform="translate(-72.5 -68.93)"/><path class="cls-4" d="M667.43,374.75a4.64,4.64,0,0,1-3.4-1.29,4.53,4.53,0,0,1-1.32-3.42v-.24a5.7,5.7,0,0,1,.56-2.56,4,4,0,0,1,1.56-1.74,4.4,4.4,0,0,1,2.32-.62,3.91,3.91,0,0,1,3.07,1.24,5,5,0,0,1,1.12,3.48v1h-6.05a2.39,2.39,0,0,0,.74,1.5,2.27,2.27,0,0,0,1.57.56,2.73,2.73,0,0,0,2.29-1.07l1.25,1.4a3.8,3.8,0,0,1-1.55,1.26A5,5,0,0,1,667.43,374.75Zm-.29-7.82a1.55,1.55,0,0,0-1.22.52,2.59,2.59,0,0,0-.61,1.46h3.54v-.2a1.94,1.94,0,0,0-.46-1.31A1.64,1.64,0,0,0,667.14,366.93Z" transform="translate(-72.5 -68.93)"/><path class="cls-4" d="M676.74,372.7a1.64,1.64,0,0,0,1.14-.39,1.37,1.37,0,0,0,.46-1h2.38a3.23,3.23,0,0,1-.53,1.77,3.33,3.33,0,0,1-1.42,1.25,4.38,4.38,0,0,1-2,.45,4.12,4.12,0,0,1-3.21-1.3,5.1,5.1,0,0,1-1.18-3.58v-.17a5.1,5.1,0,0,1,1.17-3.51,4.1,4.1,0,0,1,3.21-1.31,4,4,0,0,1,2.86,1,3.62,3.62,0,0,1,1.09,2.7h-2.38a1.75,1.75,0,0,0-.46-1.2,1.69,1.69,0,0,0-2.5.18,3.76,3.76,0,0,0-.45,2.1v.26a3.82,3.82,0,0,0,.45,2.12A1.56,1.56,0,0,0,676.74,372.7Z" transform="translate(-72.5 -68.93)"/><path class="cls-4" d="M687.51,367.44a8.2,8.2,0,0,0-.91-.07,1.87,1.87,0,0,0-1.89,1v6.22h-2.54v-9.51h2.4l.07,1.13a2.36,2.36,0,0,1,2.12-1.31,2.56,2.56,0,0,1,.79.12Z" transform="translate(-72.5 -68.93)"/><path class="cls-4" d="M693,374.75a4.66,4.66,0,0,1-3.41-1.29,4.57,4.57,0,0,1-1.31-3.42v-.24a5.7,5.7,0,0,1,.55-2.56,4,4,0,0,1,1.57-1.74,4.4,4.4,0,0,1,2.32-.62,3.92,3.92,0,0,1,3.07,1.24,5,5,0,0,1,1.12,3.48v1H690.8a2.39,2.39,0,0,0,.74,1.5,2.29,2.29,0,0,0,1.57.56,2.75,2.75,0,0,0,2.3-1.07l1.25,1.4a3.86,3.86,0,0,1-1.55,1.26A5,5,0,0,1,693,374.75Zm-.29-7.82a1.56,1.56,0,0,0-1.23.52,2.65,2.65,0,0,0-.6,1.46h3.53v-.2a1.84,1.84,0,0,0-.46-1.31A1.61,1.61,0,0,0,692.66,366.93Z" transform="translate(-72.5 -68.93)"/><path class="cls-4" d="M701.34,362.72v2.34H703v1.86h-1.63v4.75a1.19,1.19,0,0,0,.2.76,1,1,0,0,0,.78.22,4,4,0,0,0,.74-.06v1.93a5.32,5.32,0,0,1-1.54.23,2.42,2.42,0,0,1-2.72-2.7v-5.13h-1.39v-1.86h1.39v-2.34Z" transform="translate(-72.5 -68.93)"/><path class="cls-4" d="M709.89,374.57a2.67,2.67,0,0,1-.25-.85,3.11,3.11,0,0,1-2.4,1,3.38,3.38,0,0,1-2.32-.81,2.61,2.61,0,0,1-.92-2,2.7,2.7,0,0,1,1.12-2.32,5.57,5.57,0,0,1,3.24-.82h1.17v-.54a1.55,1.55,0,0,0-.34-1.06,1.33,1.33,0,0,0-1.07-.39,1.53,1.53,0,0,0-1,.3,1.07,1.07,0,0,0-.37.85h-2.54a2.56,2.56,0,0,1,.51-1.53,3.28,3.28,0,0,1,1.45-1.1,5.16,5.16,0,0,1,2.09-.41,4.15,4.15,0,0,1,2.79.89,3.07,3.07,0,0,1,1,2.48v4.12a4.52,4.52,0,0,0,.38,2.05v.15Zm-2.1-1.77a2.16,2.16,0,0,0,1-.25,1.62,1.62,0,0,0,.7-.67v-1.63h-.95c-1.27,0-2,.44-2,1.31v.15a1,1,0,0,0,.34.79A1.3,1.3,0,0,0,707.79,372.8Z" transform="translate(-72.5 -68.93)"/><path class="cls-4" d="M719.38,367.44a8.54,8.54,0,0,0-.92-.07,1.87,1.87,0,0,0-1.89,1v6.22H714v-9.51h2.4l.07,1.13a2.36,2.36,0,0,1,2.12-1.31,2.56,2.56,0,0,1,.79.12Z" transform="translate(-72.5 -68.93)"/><path class="cls-4" d="M720.58,362.6a1.27,1.27,0,0,1,.38-.94,1.65,1.65,0,0,1,2.08,0,1.34,1.34,0,0,1,0,1.89,1.63,1.63,0,0,1-2.07,0A1.25,1.25,0,0,1,720.58,362.6Zm2.7,12h-2.55v-9.51h2.55Z" transform="translate(-72.5 -68.93)"/><path class="cls-4" d="M725,369.73a5.63,5.63,0,0,1,.55-2.52,4,4,0,0,1,1.57-1.72,4.59,4.59,0,0,1,2.37-.61,4.36,4.36,0,0,1,3.15,1.18,4.72,4.72,0,0,1,1.35,3.2l0,.65a4.94,4.94,0,0,1-1.22,3.51,4.72,4.72,0,0,1-6.56,0,5.06,5.06,0,0,1-1.23-3.59Zm2.54.18A3.55,3.55,0,0,0,728,372a1.83,1.83,0,0,0,2.9,0,3.86,3.86,0,0,0,.52-2.27,3.51,3.51,0,0,0-.52-2.06,1.69,1.69,0,0,0-1.46-.73,1.65,1.65,0,0,0-1.44.73A3.94,3.94,0,0,0,727.51,369.91Z" transform="translate(-72.5 -68.93)"/><line class="cls-1" x1="348.45" y1="68.05" x2="348.45" y2="133.97"/><line class="cls-1" x1="348.45" y1="201.02" x2="348.45" y2="266.94"/><line class="cls-1" x1="348.45" y1="333.99" x2="348.45" y2="399.91"/></svg>