<?xml version="1.0" encoding="UTF-8" standalone="no"?>
<!DOCTYPE svg PUBLIC "-//W3C//DTD SVG 1.1//EN" "http://www.w3.org/Graphics/SVG/1.1/DTD/svg11.dtd">
<svg width="100%" height="100%" viewBox="0 0 856 1046" version="1.1" xmlns="http://www.w3.org/2000/svg" xmlns:xlink="http://www.w3.org/1999/xlink" xml:space="preserve" xmlns:serif="http://www.serif.com/" style="fill-rule:evenodd;clip-rule:evenodd;stroke-linejoin:round;stroke-miterlimit:2;">
    <g transform="matrix(1,0,0,1,-1386.71,-1427.12)">
        <g transform="matrix(8.33333,0,0,8.33333,0,0)">
            <g transform="matrix(1,0,0,1,184.85,171.255)">
                <path d="M0,36.95C-5.2,36.95 -9.567,35.242 -13.1,31.825C-16.634,28.408 -18.4,23.984 -18.4,18.55C-18.4,13.15 -16.617,8.709 -13.05,5.225C-9.484,1.742 -5.167,0 -0.1,0C2.433,0 4.725,0.375 6.775,1.125C8.825,1.875 10.482,2.867 11.75,4.1C13.016,5.334 14.033,6.6 14.8,7.9C15.566,9.2 16.1,10.55 16.4,11.95L8.95,14.3C8.783,13.6 8.516,12.908 8.15,12.225C7.783,11.542 7.266,10.842 6.6,10.125C5.933,9.408 5.016,8.825 3.85,8.375C2.683,7.925 1.366,7.7 -0.1,7.7C-2.768,7.7 -5.117,8.642 -7.15,10.525C-9.184,12.408 -10.2,15.084 -10.2,18.55C-10.2,21.75 -9.2,24.3 -7.2,26.2C-5.2,28.1 -2.8,29.05 0,29.05C2.732,29.05 4.85,28.367 6.35,27C7.85,25.634 8.833,24.1 9.3,22.4L16.85,24.55C16.516,25.917 15.975,27.267 15.225,28.6C14.475,29.933 13.458,31.25 12.175,32.55C10.891,33.85 9.191,34.908 7.075,35.725C4.958,36.541 2.6,36.95 0,36.95" style="fill:white;fill-rule:nonzero;"/>
            </g>
        </g>
        <g transform="matrix(8.33333,0,0,8.33333,0,0)">
            <g transform="matrix(-1,0,0,1,517.132,-160.545)">
                <rect x="298.709" y="332.55" width="8" height="35.45" style="fill:white;"/>
            </g>
        </g>
        <g transform="matrix(8.33333,0,0,8.33333,0,0)">
            <g transform="matrix(1,0,0,1,174.149,223.48)">
                <path d="M0,22.55L4.95,22.55C6.483,22.55 7.683,22.175 8.55,21.425C9.417,20.675 9.85,19.667 9.85,18.401C9.85,17.167 9.417,16.167 8.55,15.401C7.683,14.634 6.483,14.25 4.95,14.25L0,14.25L0,22.55ZM0,7.75L4.3,7.75C5.7,7.75 6.808,7.409 7.625,6.726C8.441,6.042 8.85,5.101 8.85,3.9C8.85,2.734 8.45,1.809 7.65,1.125C6.85,0.443 5.7,0.1 4.2,0.1L0,0.1L0,7.75ZM-7.7,-6.45L5.55,-6.45C8.983,-6.45 11.683,-5.566 13.65,-3.8C15.617,-2.033 16.6,0.25 16.6,3.05C16.6,4.818 16.108,6.401 15.125,7.8C14.142,9.2 12.9,10.151 11.4,10.651C13.133,11.05 14.617,11.992 15.85,13.476C17.083,14.959 17.7,16.784 17.7,18.95C17.7,21.884 16.675,24.292 14.625,26.175C12.575,28.059 9.9,29 6.6,29L-7.7,29L-7.7,-6.45Z" style="fill:white;fill-rule:nonzero;"/>
            </g>
        </g>
        <g transform="matrix(8.33333,0,0,8.33333,0,0)">
            <g transform="matrix(1,0,0,1,213.649,216.28)">
                <path d="M0,36.95C-5.2,36.95 -9.567,35.242 -13.1,31.825C-16.634,28.409 -18.4,23.984 -18.4,18.551C-18.4,13.15 -16.617,8.709 -13.05,5.225C-9.484,1.742 -5.167,0 -0.1,0C2.433,0 4.725,0.375 6.775,1.125C8.825,1.875 10.482,2.867 11.75,4.1C13.016,5.334 14.033,6.6 14.8,7.9C15.566,9.2 16.1,10.55 16.4,11.95L8.95,14.301C8.783,13.6 8.516,12.909 8.15,12.225C7.783,11.543 7.266,10.842 6.6,10.125C5.933,9.408 5.016,8.825 3.85,8.375C2.683,7.925 1.366,7.7 -0.1,7.7C-2.768,7.7 -5.117,8.642 -7.15,10.525C-9.184,12.409 -10.2,15.084 -10.2,18.551C-10.2,21.75 -9.2,24.301 -7.2,26.2C-5.2,28.1 -2.8,29.051 0,29.051C2.732,29.051 4.85,28.367 6.35,27C7.85,25.634 8.833,24.1 9.3,22.4L16.85,24.551C16.516,25.918 15.975,27.267 15.225,28.6C14.475,29.933 13.458,31.25 12.175,32.551C10.891,33.85 9.191,34.909 7.075,35.725C4.958,36.542 2.6,36.95 0,36.95" style="fill:white;fill-rule:nonzero;"/>
            </g>
        </g>
        <g transform="matrix(8.33333,0,0,8.33333,0,0)">
            <g transform="matrix(1,0,0,1,251.949,216.28)">
                <path d="M0,36.95C-5.2,36.95 -9.567,35.242 -13.1,31.825C-16.634,28.409 -18.4,23.984 -18.4,18.551C-18.4,13.15 -16.617,8.709 -13.05,5.225C-9.484,1.742 -5.167,0 -0.1,0C2.433,0 4.725,0.375 6.775,1.125C8.825,1.875 10.482,2.867 11.75,4.1C13.016,5.334 14.033,6.6 14.8,7.9C15.566,9.2 16.1,10.55 16.4,11.95L8.95,14.301C8.783,13.6 8.516,12.909 8.15,12.225C7.783,11.543 7.266,10.842 6.6,10.125C5.933,9.408 5.016,8.825 3.85,8.375C2.683,7.925 1.366,7.7 -0.1,7.7C-2.768,7.7 -5.117,8.642 -7.15,10.525C-9.184,12.409 -10.2,15.084 -10.2,18.551C-10.2,21.75 -9.2,24.301 -7.2,26.2C-5.2,28.1 -2.8,29.051 0,29.051C2.732,29.051 4.85,28.367 6.35,27C7.85,25.634 8.833,24.1 9.3,22.4L16.85,24.551C16.516,25.918 15.975,27.267 15.225,28.6C14.475,29.933 13.458,31.25 12.175,32.551C10.891,33.85 9.191,34.909 7.075,35.725C4.958,36.542 2.6,36.95 0,36.95" style="fill:white;fill-rule:nonzero;"/>
            </g>
        </g>
        <g transform="matrix(8.33333,0,0,8.33333,0,0)">
            <g transform="matrix(1,0,0,1,251.123,287.955)">
                <path d="M0,-17.85L-4.35,-5.6L4.25,-5.6L0,-17.85ZM9.3,8.8L6.75,1.6L-6.95,1.6L-9.5,8.8L-17.8,8.8L-4.45,-26.65L4.7,-26.65L17.9,8.8L9.3,8.8Z" style="fill:white;fill-rule:nonzero;"/>
            </g>
        </g>
        <g transform="matrix(8.33333,0,0,8.33333,0,0)">
            <g transform="matrix(1,0,0,1,268.783,189.566)">
                <path d="M0,-0.421C-0.31,-10.353 -8.453,-18.311 -18.46,-18.311C-28.467,-18.311 -36.61,-10.353 -36.921,-0.421L-36.935,-0.421L-36.935,17.89L0.015,17.89L0.015,-1.171L0,-0.421Z" style="fill:rgb(255,204,102);fill-rule:nonzero;"/>
            </g>
        </g>
        <g transform="matrix(8.33333,0,0,8.33333,0,0)">
            <g transform="matrix(1,0,0,1,210.717,261.218)">
                <path d="M0,9.731C-2.231,9.731 -4.794,9.129 -7.485,7.337C-12.372,4.081 -16.537,7.082 -16.745,7.237C-17.224,7.602 -24.035,12.598 -31.93,7.337C-36.838,4.067 -41.018,7.107 -41.193,7.239L-41.174,7.223L-44.311,2.588C-44.021,2.363 -37.124,-2.867 -29.109,2.474C-24.221,5.731 -20.056,2.728 -19.848,2.575C-19.369,2.209 -12.558,-2.787 -4.663,2.474C0.225,5.731 4.39,2.728 4.597,2.575C5.077,2.209 11.888,-2.787 19.782,2.474L16.961,7.337C12.074,4.081 7.909,7.083 7.7,7.237C7.385,7.478 4.316,9.731 0,9.731" style="fill:rgb(102,153,255);fill-rule:nonzero;"/>
            </g>
        </g>
        <g transform="matrix(8.33333,0,0,8.33333,0,0)">
            <g transform="matrix(1,0,0,1,210.717,274.12)">
                <path d="M0,9.732C-2.231,9.732 -4.794,9.13 -7.485,7.337C-12.372,4.082 -16.537,7.083 -16.745,7.237C-17.224,7.603 -24.035,12.599 -31.93,7.337C-36.838,4.068 -41.018,7.108 -41.193,7.239L-41.174,7.224L-44.311,2.588C-44.021,2.363 -37.124,-2.867 -29.109,2.475C-24.221,5.732 -20.056,2.729 -19.848,2.576C-19.369,2.209 -12.558,-2.787 -4.663,2.475C0.225,5.732 4.39,2.729 4.597,2.576C5.077,2.209 11.888,-2.787 19.782,2.475L16.961,7.337C12.074,4.082 7.909,7.083 7.7,7.237C7.385,7.478 4.316,9.732 0,9.732" style="fill:rgb(102,153,255);fill-rule:nonzero;"/>
            </g>
        </g>
        <g transform="matrix(8.33333,0,0,8.33333,0,0)">
            <g transform="matrix(1,0,0,1,210.717,287.022)">
                <path d="M0,9.733C-2.231,9.733 -4.794,9.13 -7.485,7.338C-12.372,4.082 -16.537,7.084 -16.745,7.238C-17.224,7.604 -24.035,12.599 -31.93,7.338C-36.838,4.068 -41.018,7.109 -41.193,7.24L-41.174,7.224L-44.311,2.589C-44.021,2.364 -37.124,-2.866 -29.109,2.475C-24.221,5.733 -20.056,2.73 -19.848,2.576C-19.369,2.21 -12.558,-2.786 -4.663,2.475C0.225,5.733 4.39,2.73 4.597,2.576C5.077,2.21 11.888,-2.786 19.782,2.475L16.961,7.338C12.074,4.082 7.909,7.084 7.7,7.238C7.385,7.479 4.316,9.733 0,9.733" style="fill:rgb(102,153,255);fill-rule:nonzero;"/>
            </g>
        </g>
    </g>
</svg>
