<svg xmlns="http://www.w3.org/2000/svg" viewBox="0 0 51.31 62.75"><defs><style>.cls-1{fill:#fff;}.cls-2{fill:#fc6;}.cls-3{fill:#69f;}</style></defs><g id="Layer_2" data-name="Layer 2"><g id="Layer_1-2" data-name="Layer 1"><path class="cls-1" d="M9.22,18.48a9.06,9.06,0,0,1-6.55-2.57A8.84,8.84,0,0,1,0,9.28,9,9,0,0,1,9.17,0a10.09,10.09,0,0,1,3.44.56A7.05,7.05,0,0,1,15.1,2.05,9.25,9.25,0,0,1,16.62,4a6.61,6.61,0,0,1,.8,2L13.7,7.15a4.74,4.74,0,0,0-.4-1,5.26,5.26,0,0,0-.78-1.05,3.51,3.51,0,0,0-1.37-.87,5.38,5.38,0,0,0-2-.34A5,5,0,0,0,5.65,5.26a5.19,5.19,0,0,0-1.53,4,5,5,0,0,0,5.1,5.25,4.57,4.57,0,0,0,3.18-1,4.78,4.78,0,0,0,1.47-2.3l3.78,1.08a8,8,0,0,1-.82,2,9.2,9.2,0,0,1-1.52,2,7.11,7.11,0,0,1-2.55,1.58,9.74,9.74,0,0,1-3.54.62"/><rect class="cls-1" x="22.01" y="0.38" width="4" height="17.73"/><path class="cls-1" d="M0,22.89H6.65a5.88,5.88,0,0,1,4,1.32,4.42,4.42,0,0,1,1.47,3.43A4,4,0,0,1,11.43,30a3.66,3.66,0,0,1-1.86,1.43,4,4,0,0,1,2.23,1.41,4.16,4.16,0,0,1,.92,2.74,4.67,4.67,0,0,1-1.54,3.61,5.69,5.69,0,0,1-4,1.41H0ZM3.87,30H6a2.49,2.49,0,0,0,1.67-.52,1.76,1.76,0,0,0,.61-1.41,1.72,1.72,0,0,0-.6-1.38A2.55,2.55,0,0,0,6,26.16H3.87Zm0,7.4H6.35a2.71,2.71,0,0,0,1.8-.56,2.08,2.08,0,0,0,0-3,2.66,2.66,0,0,0-1.8-.57H3.87Z"/><path class="cls-1" d="M23.62,41a9.06,9.06,0,0,1-6.55-2.57,8.81,8.81,0,0,1-2.65-6.63,9,9,0,0,1,9.15-9.28,10.09,10.09,0,0,1,3.44.56,7.2,7.2,0,0,1,2.49,1.49A9.25,9.25,0,0,1,31,26.46a6.61,6.61,0,0,1,.8,2L28.1,29.66a4.94,4.94,0,0,0-.4-1,5.26,5.26,0,0,0-.78-1.05,3.63,3.63,0,0,0-1.37-.87,5.59,5.59,0,0,0-2-.34,5,5,0,0,0-3.52,1.42,5.17,5.17,0,0,0-1.53,4A5,5,0,0,0,23.62,37a4.52,4.52,0,0,0,3.18-1,4.78,4.78,0,0,0,1.47-2.3l3.78,1.08a7.87,7.87,0,0,1-.82,2,9.2,9.2,0,0,1-1.52,2,7.13,7.13,0,0,1-2.55,1.59,10,10,0,0,1-3.54.61"/><path class="cls-1" d="M42.77,41a9.06,9.06,0,0,1-6.55-2.57,8.78,8.78,0,0,1-2.65-6.63,9,9,0,0,1,9.15-9.28,10.09,10.09,0,0,1,3.44.56,7.2,7.2,0,0,1,2.49,1.49,9.25,9.25,0,0,1,1.52,1.9,6.87,6.87,0,0,1,.8,2l-3.72,1.17a4.94,4.94,0,0,0-.4-1,5.68,5.68,0,0,0-.78-1.05,3.63,3.63,0,0,0-1.37-.87,5.63,5.63,0,0,0-2-.34,5,5,0,0,0-3.52,1.42,5.17,5.17,0,0,0-1.53,4A5,5,0,0,0,42.77,37,4.52,4.52,0,0,0,46,36a4.78,4.78,0,0,0,1.47-2.3l3.78,1.08a7.87,7.87,0,0,1-.82,2,9.2,9.2,0,0,1-1.52,2,7.13,7.13,0,0,1-2.55,1.59,10,10,0,0,1-3.54.61"/><path class="cls-1" d="M47,62.75l-1.28-3.6H38.88l-1.27,3.6H33.46L40.13,45h4.58l6.6,17.72ZM42.36,49.43l-2.18,6.12h4.3Z"/><path class="cls-2" d="M51.19,8.94a9.23,9.23,0,0,0-18.46,0h0V18.1H51.2V8.94Z"/><path class="cls-3" d="M22.16,49.85a6.66,6.66,0,0,1-3.75-1.2,4,4,0,0,0-4.63,0,6.55,6.55,0,0,1-7.59,0,4,4,0,0,0-4.63,0h0L0,46.28a6.54,6.54,0,0,1,7.6-.06,4,4,0,0,0,4.63.05,6.56,6.56,0,0,1,7.59-.05,4.05,4.05,0,0,0,4.64.05,6.55,6.55,0,0,1,7.59-.05l-1.41,2.43a4,4,0,0,0-4.63,0,6.78,6.78,0,0,1-3.85,1.25"/><path class="cls-3" d="M22.16,56.3a6.66,6.66,0,0,1-3.75-1.2,4,4,0,0,0-4.63-.05,6.55,6.55,0,0,1-7.59.05,4.07,4.07,0,0,0-4.63-.05h0L0,52.73a6.54,6.54,0,0,1,7.6-.06,4,4,0,0,0,4.63,0,6.56,6.56,0,0,1,7.59,0,4.05,4.05,0,0,0,4.64,0,6.55,6.55,0,0,1,7.59,0L30.64,55.1A4,4,0,0,0,26,55.05a6.78,6.78,0,0,1-3.85,1.25"/><path class="cls-3" d="M22.16,62.75a6.66,6.66,0,0,1-3.75-1.2,4.08,4.08,0,0,0-4.63,0,6.53,6.53,0,0,1-7.59,0,4.07,4.07,0,0,0-4.63,0h0L0,59.18a6.56,6.56,0,0,1,7.6-.06,4,4,0,0,0,4.63.05,6.56,6.56,0,0,1,7.59-.05,4.05,4.05,0,0,0,4.64.05,6.55,6.55,0,0,1,7.59-.05l-1.41,2.43a4.07,4.07,0,0,0-4.63,0,6.78,6.78,0,0,1-3.85,1.25"/></g></g></svg>